<svg width="1833" height="1080" viewBox="0 0 1833 1080" fill="none" xmlns="http://www.w3.org/2000/svg">
<g clip-path="url(#clip0_1_2846)">
<path d="M-508.279 393.092L-517.516 365.794C-517.24 365.698 -487.469 355.392 -456.378 331.159C-415.678 299.435 -391.867 259.86 -385.606 213.528C-379.116 165.494 -357.871 122.84 -324.17 90.1776C-292.925 59.8968 -252.186 39.9357 -209.458 33.9712C-167.697 28.1426 -126.626 35.6234 -90.6942 55.6071C-51.5027 77.4029 -19.929 113.737 0.613342 160.682C33.769 236.455 89.0784 284.092 165.002 302.268C222.545 316.044 271.118 306.966 271.604 306.873L277.14 335.154C274.951 335.581 222.85 345.478 159.425 330.564C121.942 321.75 88.2551 306.067 59.3008 283.951C23.1779 256.361 -5.4649 218.768 -25.8342 172.218C-60.6385 92.6807 -127.778 51.6624 -205.462 62.5098C-271.726 71.7591 -344.284 123.234 -357.005 217.381C-364.249 271.003 -392.755 318.42 -439.437 354.508C-474.296 381.456 -506.908 392.63 -508.279 393.092Z" fill="#13232C"/>
<path d="M262.036 315.23C262.036 315.23 60.7853 349.028 -18.1684 154.355C-97.1214 -40.3179 -328.798 80.5032 -374.932 193.278C-421.066 306.051 -519.661 351.976 -519.661 351.976" stroke="#172A32" stroke-width="2.38484" stroke-linecap="round" stroke-linejoin="round"/>
<path d="M1410.6 752.827C1383.23 752.827 1364.76 751.547 1362.3 751.366L1364.87 716.381C1366.72 716.518 1539.67 728.393 1631.95 675.924C1620.61 667.62 1610.09 658.259 1600.53 647.967C1568.3 613.163 1554.65 575.567 1564.01 547.397C1572.2 522.764 1589.8 508.61 1612.31 508.564H1612.41C1647.13 508.564 1687.27 543.928 1701.93 587.46C1712.13 617.728 1708.52 646.517 1692.29 669.925C1717.83 680.336 1746.74 684.796 1776.2 677.543C1842.96 661.111 1895.48 588.414 1928.09 467.311L1962.02 476.418C1943.01 547.016 1917.18 603.057 1885.24 642.989C1856.26 679.213 1822.41 702.299 1784.61 711.603C1751.34 719.793 1715.34 716.823 1680.51 703.006C1675.41 700.984 1670.36 698.736 1665.35 696.262C1595.77 745.288 1477 752.827 1410.6 752.827ZM1612.42 543.644H1612.38C1609.36 543.649 1602.27 543.663 1597.36 558.443C1593.17 571.054 1600.51 596.264 1626.33 624.156C1636.65 635.205 1648.25 644.986 1660.89 653.291C1675.81 634.7 1673.79 613.97 1668.63 598.642C1658.19 567.648 1629.86 543.644 1612.42 543.644Z" fill="#13232C"/>
<path d="M1682.06 661.196C1730.82 591.617 1614.8 483.889 1589.86 558.967C1562.65 640.847 1834.22 862.128 1936.63 481.826" stroke="#172A32" stroke-width="1.98736" stroke-linecap="round" stroke-linejoin="round"/>
<path d="M1399.71 889.491C1399.71 892.832 1399.05 896.14 1397.77 899.226C1396.49 902.312 1394.61 905.116 1392.25 907.478C1389.88 909.841 1387.07 911.714 1383.98 912.992C1380.89 914.271 1377.58 914.929 1374.23 914.929H337.453C330.696 914.929 324.215 912.249 319.437 907.478C314.659 902.708 311.975 896.238 311.975 889.491C311.975 886.151 312.634 882.843 313.914 879.756C315.194 876.67 317.071 873.866 319.437 871.504C321.803 869.141 324.612 867.267 327.703 865.989C330.794 864.711 334.107 864.053 337.453 864.053H1374.23C1377.58 864.053 1380.89 864.711 1383.98 865.989C1387.07 867.267 1389.88 869.141 1392.25 871.503C1394.61 873.866 1396.49 876.67 1397.77 879.756C1399.05 882.843 1399.71 886.151 1399.71 889.491Z" fill="#4D7C87"/>
<path d="M784.032 228.262L832.489 216.279C832.489 216.279 843.599 224.251 834.073 236.089C833.519 236.775 784.032 228.262 784.032 228.262Z" fill="#375965"/>
<path d="M784.032 228.262L832.489 216.279C832.489 216.279 843.599 224.251 834.073 236.089C833.519 236.775 784.032 228.262 784.032 228.262Z" stroke="#172A32" stroke-width="1.19242" stroke-miterlimit="10"/>
<path d="M778.001 201.327L810.023 163.091C810.023 163.091 823.706 162.974 823.017 178.144C822.975 179.023 778.001 201.327 778.001 201.327Z" fill="#375965"/>
<path d="M778.001 201.327L810.023 163.091C810.023 163.091 823.706 162.974 823.017 178.144C822.975 179.023 778.001 201.327 778.001 201.327Z" stroke="#172A32" stroke-width="1.19242" stroke-miterlimit="10"/>
<path d="M758.371 203.691L743.742 156.038C743.742 156.038 751.106 144.526 763.466 153.377C764.182 153.891 758.371 203.691 758.371 203.691Z" fill="#375965"/>
<path d="M758.371 203.691L743.742 156.038C743.742 156.038 751.106 144.526 763.466 153.377C764.182 153.891 758.371 203.691 758.371 203.691Z" stroke="#172A32" stroke-width="1.19242" stroke-miterlimit="10"/>
<path d="M849.925 841.925L806.139 845.348C806.139 845.348 797.648 836.831 807.626 827.929C808.203 827.414 849.925 841.925 849.925 841.925Z" fill="#375965"/>
<path d="M849.925 841.925L806.139 845.348C806.139 845.348 797.648 836.831 807.626 827.929C808.203 827.414 849.925 841.925 849.925 841.925Z" stroke="#172A32" stroke-width="1.19242" stroke-miterlimit="10"/>
<path d="M851.269 866.17L817.955 894.747C817.955 894.747 806.065 892.879 808.851 879.81C809.014 879.054 851.269 866.17 851.269 866.17Z" fill="#375965"/>
<path d="M851.269 866.17L817.955 894.747C817.955 894.747 806.065 892.879 808.851 879.81C809.014 879.054 851.269 866.17 851.269 866.17Z" stroke="#172A32" stroke-width="1.19242" stroke-miterlimit="10"/>
<path d="M868.646 866.944L874.462 910.409C874.462 910.409 866.408 919.34 856.958 909.878C856.411 909.329 868.646 866.944 868.646 866.944Z" fill="#375965"/>
<path d="M868.646 866.944L874.462 910.409C874.462 910.409 866.408 919.34 856.958 909.878C856.411 909.329 868.646 866.944 868.646 866.944Z" stroke="#172A32" stroke-width="1.19242" stroke-miterlimit="10"/>
<path d="M653.16 640.007H646.582L643.844 656.732H635.713L638.451 640.007H629.38V632.542H639.676L641.474 621.772H632.444V614.307H642.7L645.519 597.336H653.609L650.831 614.307H657.41L660.229 597.336H668.36L665.54 614.307H674.979V621.772H664.315L662.516 632.542H671.874V640.007H661.291L658.553 656.732H650.422L653.16 640.007ZM647.807 632.542H654.386L656.183 621.772H649.605L647.807 632.542Z" fill="#4D7C87"/>
<path d="M516.455 877.095C513.012 877.055 509.722 875.672 507.288 873.241C504.853 870.811 503.468 867.526 503.428 864.089V814.957H351.459C348.017 814.918 344.727 813.535 342.293 811.105C339.859 808.675 338.474 805.39 338.434 801.954V750.895C338.434 742.548 340.525 735.644 344.706 730.183L488.954 548.591C491.849 545.061 494.503 542.733 496.915 541.606C499.327 540.486 502.623 539.924 506.806 539.92H579.654C583.096 539.961 586.386 541.344 588.82 543.774C591.254 546.205 592.639 549.489 592.679 552.926V737.889H634.169C637.611 737.93 640.901 739.314 643.335 741.744C645.769 744.174 647.155 747.459 647.196 750.895V801.954C647.155 805.39 645.77 808.675 643.336 811.105C640.901 813.535 637.611 814.918 634.169 814.957H592.679V864.089C592.639 867.526 591.254 870.81 588.82 873.241C586.386 875.671 583.096 877.054 579.654 877.095H516.455ZM505.84 737.889V649.262L435.404 737.889H505.84Z" fill="#4D7C87"/>
<path d="M884.441 388.352C908.561 388.352 929.306 391.884 946.675 398.949C964.042 406.017 978.435 415.49 989.854 427.368C1001.27 439.262 1010 453.473 1015.42 469.033C1021.08 485.096 1024.41 501.883 1025.31 518.886C1025.95 532.697 1026.28 547.148 1026.28 562.238C1026.28 577.336 1025.96 591.465 1025.31 604.626C1024.41 621.629 1021.08 638.417 1015.42 654.479C1010 670.041 1001.28 684.252 989.854 696.144C978.433 708.029 964.04 717.502 946.675 724.563C929.307 731.623 908.562 735.155 884.441 735.159C860.318 735.159 839.573 731.627 822.205 724.563C804.838 717.504 790.446 708.031 779.027 696.144C767.6 684.256 758.878 670.043 753.458 654.479C747.795 638.418 744.464 621.63 743.568 604.626C742.919 591.462 742.598 577.333 742.603 562.238C742.603 547.148 742.925 532.697 743.568 518.886C744.464 501.882 747.795 485.094 753.458 469.033C758.88 453.47 767.601 439.258 779.027 427.368C790.44 415.492 804.832 406.019 822.205 398.949C839.573 391.889 860.319 388.357 884.441 388.352ZM936.062 602.217C937.344 574.927 937.344 547.954 936.062 521.296C935.504 513.819 934.293 506.405 932.443 499.138C930.852 492.767 927.979 486.785 924 481.557C919.913 476.406 914.608 472.351 908.561 469.756C902.125 466.865 894.085 465.42 884.441 465.421C874.792 465.421 866.751 466.866 860.318 469.756C854.271 472.349 848.966 476.405 844.881 481.557C840.885 486.808 837.937 492.777 836.196 499.138C834.19 506.363 833.056 513.802 832.819 521.296C831.206 548.245 831.206 575.267 832.819 602.217C833.058 609.694 834.109 617.123 835.955 624.374C837.555 630.788 840.516 636.783 844.638 641.956C848.848 647.081 854.224 651.128 860.318 653.758C866.748 656.647 874.789 658.091 884.441 658.091C894.089 658.091 902.13 656.647 908.561 653.758C914.654 651.125 920.029 647.079 924.241 641.956C928.358 636.78 931.319 630.786 932.925 624.374C934.764 617.122 935.815 609.693 936.062 602.217Z" fill="#4D7C87"/>
<path d="M1259.54 502.878C1256.1 502.838 1252.81 501.454 1250.37 499.024C1247.94 496.594 1246.55 493.31 1246.51 489.873V440.741H1094.54C1091.1 440.702 1087.81 439.319 1085.38 436.889C1082.94 434.459 1081.56 431.174 1081.52 427.737V376.679C1081.52 368.332 1083.61 361.428 1087.79 355.967L1232.04 174.375C1234.93 170.845 1237.59 168.517 1240 167.39C1242.41 166.269 1245.71 165.707 1249.89 165.704H1322.74C1326.18 165.745 1329.47 167.128 1331.91 169.558C1334.34 171.988 1335.72 175.273 1335.76 178.71V363.674H1377.25C1380.7 363.714 1383.99 365.097 1386.42 367.527C1388.85 369.957 1390.24 373.242 1390.28 376.679V427.737C1390.24 431.174 1388.85 434.458 1386.42 436.889C1383.99 439.319 1380.7 440.701 1377.25 440.741H1335.76V489.873C1335.72 493.31 1334.34 496.594 1331.91 499.025C1329.47 501.455 1326.18 502.838 1322.74 502.878H1259.54ZM1248.92 363.674V275.046L1178.49 363.674H1248.92Z" fill="#4D7C87"/>
<path d="M507.94 840.928C504.498 840.888 501.208 839.506 498.774 837.075C496.34 834.645 494.954 831.361 494.914 827.924V778.792H342.945C339.503 778.752 336.213 777.37 333.779 774.939C331.345 772.509 329.96 769.224 329.92 765.787V714.729C329.92 706.383 332.011 699.479 336.192 694.017L480.44 512.425C483.335 508.896 485.989 506.567 488.401 505.441C490.813 504.32 494.11 503.758 498.292 503.754H571.14C574.582 503.794 577.872 505.177 580.306 507.608C582.74 510.038 584.125 513.323 584.165 516.76V701.723H625.656C629.098 701.764 632.388 703.147 634.822 705.577C637.256 708.007 638.641 711.292 638.681 714.729V765.787C638.642 769.224 637.256 772.509 634.822 774.939C632.388 777.369 629.098 778.752 625.656 778.792H584.165V827.924C584.125 831.361 582.74 834.645 580.306 837.076C577.872 839.506 574.582 840.889 571.14 840.928H507.94ZM497.326 701.723V613.095L426.89 701.723H497.326Z" stroke="#172A32" stroke-width="1.19242" stroke-linecap="round" stroke-linejoin="round"/>
<path d="M841.777 405.892C865.898 405.892 886.642 409.424 904.01 416.489C921.379 423.557 935.772 433.03 947.19 444.908C958.611 456.802 967.332 471.013 972.76 486.574C978.419 502.636 981.748 519.424 982.648 536.427C983.289 550.237 983.611 564.688 983.614 579.778C983.614 594.875 983.292 609.005 982.648 622.166C981.748 639.169 978.418 655.956 972.76 672.018C967.334 687.58 958.613 701.791 947.19 713.684C935.768 725.568 921.375 735.041 904.01 742.103C886.643 749.163 865.899 752.695 841.777 752.7C817.654 752.7 796.909 749.168 779.542 742.103C762.173 735.044 747.781 725.571 736.364 713.684C724.936 701.795 716.214 687.583 710.794 672.018C705.131 655.957 701.801 639.17 700.905 622.166C700.256 609.002 699.934 594.872 699.94 579.778C699.94 564.688 700.261 550.237 700.905 536.427C701.8 519.423 705.131 502.635 710.794 486.574C716.216 471.01 724.937 456.798 736.364 444.908C747.776 433.031 762.168 423.558 779.542 416.489C796.91 409.429 817.655 405.897 841.777 405.892ZM893.398 619.756C894.679 592.467 894.679 565.493 893.398 538.835C892.84 531.359 891.629 523.945 889.779 516.678C888.187 510.307 885.315 504.326 881.336 499.097C877.25 493.947 871.944 489.891 865.898 487.297C859.46 484.405 851.419 482.96 841.777 482.96C832.127 482.96 824.086 484.406 817.654 487.297C811.607 489.89 806.301 493.945 802.216 499.097C798.221 504.348 795.273 510.317 793.533 516.678C791.527 523.903 790.393 531.342 790.154 538.835C788.542 565.785 788.542 592.807 790.154 619.756C790.394 627.234 791.445 634.663 793.29 641.914C794.891 648.328 797.852 654.323 801.975 659.495C806.184 664.621 811.56 668.667 817.654 671.297C824.084 674.187 832.125 675.632 841.777 675.632C851.425 675.632 859.465 674.187 865.898 671.297C871.99 668.664 877.365 664.618 881.577 659.495C885.694 654.32 888.655 648.325 890.261 641.914C892.1 634.662 893.152 627.233 893.398 619.756V619.756Z" stroke="#172A32" stroke-width="1.19242" stroke-linecap="round" stroke-linejoin="round"/>
<path d="M1219.81 520.418C1216.37 520.378 1213.08 518.996 1210.65 516.565C1208.21 514.135 1206.83 510.85 1206.79 507.413V458.281H1054.82C1051.38 458.242 1048.09 456.86 1045.65 454.429C1043.22 451.999 1041.83 448.714 1041.79 445.278V394.219C1041.79 385.873 1043.88 378.968 1048.07 373.506L1192.31 191.915C1195.21 188.385 1197.86 186.057 1200.28 184.93C1202.69 183.81 1205.98 183.248 1210.17 183.244H1283.01C1286.46 183.285 1289.75 184.668 1292.18 187.098C1294.61 189.528 1296 192.813 1296.04 196.25V381.213H1337.53C1340.97 381.254 1344.26 382.637 1346.7 385.067C1349.13 387.498 1350.51 390.782 1350.56 394.219V445.278C1350.52 448.714 1349.13 451.999 1346.7 454.429C1344.26 456.859 1340.97 458.241 1337.53 458.281H1296.04V507.413C1296 510.85 1294.61 514.134 1292.18 516.565C1289.75 518.995 1286.46 520.378 1283.01 520.418H1219.81ZM1209.2 381.213V292.585L1138.76 381.213H1209.2Z" stroke="#172A32" stroke-width="1.19242" stroke-linecap="round" stroke-linejoin="round"/>
<path d="M339.939 861.962H1356.35" stroke="#172A32" stroke-width="1.19242" stroke-linecap="round" stroke-linejoin="round"/>
<path d="M527.69 831.11L518.906 857.733L498.995 857.19L505.574 835.025" fill="white"/>
<path d="M527.69 831.11L518.906 857.733L498.995 857.19L505.574 835.025" stroke="#172A32" stroke-width="1.19242" stroke-linecap="round" stroke-linejoin="round"/>
<path d="M602.819 428.551L590.721 429.559C593.661 454.234 583.163 472.461 569.399 485.488L582.739 506.452C606.684 474.847 602.819 428.551 602.819 428.551Z" fill="white" stroke="#172A32" stroke-width="1.19242" stroke-linecap="round" stroke-linejoin="round"/>
<path d="M519.663 513.162L530.848 534.613C555.657 531.859 571.996 520.634 582.739 506.452L569.399 485.488C548.351 505.408 519.663 513.162 519.663 513.162Z" fill="#4D7C87" stroke="#172A32" stroke-width="1.19242" stroke-linecap="round" stroke-linejoin="round"/>
<path d="M602.647 433.956L591.432 433.763C590.96 433.474 590.526 433.126 590.142 432.728C589.554 432.101 590.779 429.86 590.779 429.86C590.779 429.86 586.628 423.373 585.682 417.834C584.735 412.297 580.342 406.852 582.993 406.78C585.644 406.708 585.772 411.473 587.085 410.908C587.74 410.626 587.958 406.264 587.211 402.011C586.467 397.761 584.758 393.618 586.625 393.966C590.358 394.659 592.38 408.288 592.38 408.288C592.38 408.288 592.655 403.894 592.636 399.298C592.618 394.366 592.383 389.209 594.722 389.242C596.742 389.27 596.705 393.804 597.25 398.319C597.638 401.29 598.197 404.236 598.924 407.144C598.924 407.144 599.918 392.238 601.554 393.782C603.189 395.326 602.006 408.577 602.955 408.572C603.907 408.566 605.078 399.293 606.425 400.051C607.774 400.809 606.349 416.744 606.349 416.744C606.349 416.744 606.861 426.087 603.264 430.423C603.264 430.423 604.865 433.279 602.647 433.956Z" fill="#13232C"/>
<path d="M576.015 478.774L564.047 486.248L580.876 513.113L592.844 505.64L576.015 478.774Z" fill="#4D7C87" stroke="#172A32" stroke-width="1.19242" stroke-linecap="round" stroke-linejoin="round"/>
<path d="M420.927 322.981C420.927 330.104 418.093 336.935 413.049 341.972C408.004 347.009 401.162 349.839 394.028 349.84H266.594C259.459 349.84 252.617 347.01 247.572 341.973C242.526 336.936 239.692 330.104 239.691 322.981C239.692 315.857 242.526 309.025 247.571 303.988C252.616 298.951 259.459 296.121 266.594 296.12H394.028C401.162 296.121 408.004 298.952 413.049 303.989C418.093 309.026 420.927 315.857 420.927 322.981Z" fill="white" stroke="#172A32" stroke-width="1.19242" stroke-linecap="round" stroke-linejoin="round"/>
<path d="M385.86 328.446H270.521C265.018 328.443 259.679 326.579 255.374 323.159C251.068 319.738 248.05 314.962 246.812 309.609C244.814 313.313 243.812 317.471 243.905 321.677C243.998 325.883 245.183 329.993 247.343 333.605C249.503 337.217 252.565 340.208 256.229 342.285C259.893 344.363 264.034 345.455 268.248 345.456H383.588C387.254 345.466 390.875 344.647 394.179 343.06C397.482 341.474 400.383 339.161 402.664 336.295C404.945 333.43 406.546 330.086 407.348 326.514C408.15 322.943 408.131 319.236 407.293 315.673C405.208 319.535 402.115 322.762 398.341 325.011C394.568 327.26 390.255 328.447 385.86 328.446Z" fill="#4D7C87"/>
<path d="M477.566 332.873C477.568 339.464 476.268 345.991 473.743 352.08C471.217 358.17 467.514 363.703 462.847 368.364C458.179 373.024 452.637 376.721 446.538 379.243C440.439 381.765 433.902 383.063 427.301 383.062C420.699 383.063 414.163 381.765 408.064 379.243C401.965 376.721 396.423 373.024 391.755 368.364C387.088 363.703 383.385 358.17 380.86 352.08C378.334 345.991 377.035 339.464 377.036 332.873V313.084C377.035 306.493 378.335 299.967 380.861 293.878C383.386 287.788 387.089 282.255 391.756 277.595C396.424 272.934 401.965 269.238 408.064 266.716C414.163 264.194 420.7 262.896 427.301 262.896C433.902 262.896 440.439 264.193 446.538 266.715C452.636 269.237 458.178 272.934 462.846 277.595C467.513 282.255 471.216 287.788 473.742 293.877C476.268 299.967 477.567 306.493 477.566 313.084V332.873Z" fill="white" stroke="#172A32" stroke-width="1.19242" stroke-linecap="round" stroke-linejoin="round"/>
<path d="M442.359 356.125C436.515 356.126 430.728 354.977 425.328 352.744C419.929 350.512 415.023 347.239 410.89 343.113C406.758 338.987 403.48 334.089 401.244 328.698C399.008 323.307 397.858 317.529 397.859 311.694V294.173C397.854 288.414 398.974 282.71 401.157 277.379C395.114 281.445 390.166 286.931 386.746 293.355C383.326 299.779 381.541 306.944 381.546 314.219V331.739C381.546 342.038 385.129 352.017 391.683 359.97C398.237 367.923 407.355 373.356 417.477 375.339C427.599 377.323 438.097 375.734 447.176 370.844C456.254 365.954 463.35 358.068 467.248 348.533C459.9 353.495 451.23 356.14 442.359 356.125Z" fill="#4D7C87"/>
<path d="M641.815 361.15C641.816 368.576 640.351 375.929 637.505 382.79C634.658 389.651 630.486 395.885 625.227 401.136C619.967 406.387 613.723 410.552 606.851 413.394C599.979 416.235 592.614 417.697 585.176 417.696H484.645C477.208 417.697 469.843 416.234 462.971 413.393C456.099 410.551 449.856 406.386 444.596 401.135C439.337 395.884 435.165 389.65 432.319 382.79C429.473 375.929 428.008 368.575 428.009 361.15V284.809C428.009 277.383 429.473 270.03 432.32 263.169C435.166 256.308 439.338 250.075 444.597 244.824C449.856 239.573 456.1 235.408 462.971 232.566C469.843 229.724 477.208 228.262 484.645 228.262H585.176C592.614 228.262 599.979 229.724 606.851 232.565C613.723 235.407 619.967 239.572 625.226 244.823C630.486 250.074 634.658 256.307 637.504 263.168C640.35 270.029 641.815 277.383 641.815 284.809V361.15Z" fill="white" stroke="#172A32" stroke-width="1.19242" stroke-linecap="round" stroke-linejoin="round"/>
<path d="M604.22 384.287H510.78C503.867 384.287 497.021 382.928 490.634 380.287C484.247 377.646 478.444 373.774 473.556 368.894C468.667 364.013 464.79 358.219 462.144 351.842C459.499 345.465 458.138 338.631 458.138 331.728V260.772C458.134 254.174 459.379 247.635 461.807 241.499C453.15 245.895 445.881 252.598 440.804 260.864C435.727 269.13 433.041 278.638 433.042 288.335V359.291C433.041 366.193 434.403 373.028 437.048 379.405C439.693 385.782 443.571 391.576 448.459 396.456C453.347 401.337 459.15 405.208 465.537 407.849C471.924 410.49 478.77 411.849 485.683 411.849H579.122C589.688 411.849 600.01 408.674 608.744 402.738C617.478 396.802 624.222 388.38 628.097 378.566C620.704 382.334 612.52 384.295 604.22 384.287Z" fill="#4D7C87"/>
<path d="M650.571 190.798C642.512 190.737 634.51 192.149 626.961 194.966C626.858 194.964 626.755 194.953 626.651 194.953C622.04 194.953 617.624 197.813 613.541 203.039C609.89 206.453 607.48 210.402 606.701 214.652C596.075 237.572 589.008 278.248 589.008 324.616C589.008 396.227 605.861 454.278 626.651 454.278C628.661 454.258 630.634 453.742 632.396 452.777C638.32 454.379 644.433 455.18 650.571 455.16C674.958 455.16 694.731 443.133 694.731 428.3V217.661C694.731 202.826 674.958 190.798 650.571 190.798Z" fill="white" stroke="#172A32" stroke-width="1.19242" stroke-linecap="round" stroke-linejoin="round"/>
<path d="M562.996 357.886C562.996 358.762 562.648 359.602 562.028 360.221C561.408 360.841 560.567 361.188 559.69 361.189C558.815 361.186 557.976 360.837 557.359 360.218C556.741 359.599 556.394 358.76 556.395 357.886V275.893C556.397 275.021 556.745 274.185 557.362 273.569C557.98 272.952 558.816 272.605 559.69 272.603C560.565 272.602 561.405 272.948 562.024 273.565C562.644 274.182 562.994 275.019 562.996 275.893V357.886Z" fill="#4D7C87"/>
<path d="M539.155 357.886C539.155 358.762 538.806 359.602 538.186 360.221C537.566 360.84 536.725 361.188 535.848 361.189C534.973 361.186 534.135 360.837 533.517 360.218C532.899 359.599 532.552 358.76 532.553 357.886V275.893C532.555 275.021 532.903 274.185 533.52 273.569C534.138 272.952 534.975 272.605 535.848 272.603C536.723 272.602 537.563 272.948 538.183 273.565C538.803 274.182 539.152 275.019 539.155 275.893V357.886Z" fill="#4D7C87"/>
<path d="M714.487 324.616C714.487 396.227 697.634 454.278 676.844 454.278C656.054 454.278 639.202 396.227 639.202 324.616C639.202 253.004 656.054 194.953 676.844 194.953C697.634 194.953 714.487 253.004 714.487 324.616Z" fill="#375965" stroke="#172A32" stroke-width="1.19242" stroke-miterlimit="10"/>
<path d="M668.075 345.163C668.075 346.492 667.546 347.767 666.605 348.707C665.663 349.647 664.387 350.175 663.055 350.175C662.396 350.175 661.744 350.045 661.135 349.793C660.526 349.541 659.972 349.172 659.506 348.707C659.04 348.242 658.67 347.689 658.418 347.081C658.166 346.473 658.036 345.821 658.036 345.163V301.314C658.036 300.656 658.166 300.004 658.418 299.396C658.67 298.788 659.04 298.236 659.506 297.771C659.972 297.305 660.526 296.936 661.135 296.684C661.744 296.432 662.396 296.303 663.055 296.303C664.387 296.303 665.663 296.831 666.605 297.771C667.546 298.711 668.075 299.985 668.075 301.314V345.163Z" fill="#13232C"/>
<path d="M696.308 328.25C696.308 329.579 695.779 330.854 694.838 331.794C693.896 332.733 692.62 333.261 691.289 333.262C689.957 333.261 688.681 332.733 687.74 331.794C686.799 330.854 686.27 329.579 686.269 328.25V284.4C686.269 283.071 686.798 281.797 687.74 280.857C688.681 279.917 689.957 279.389 691.289 279.389C692.62 279.389 693.896 279.917 694.838 280.857C695.779 281.797 696.308 283.071 696.308 284.4V328.25Z" fill="#13232C"/>
<path d="M591.374 819.522L587.452 842.23L565.805 845.675L570.67 823.437" fill="white"/>
<path d="M591.374 819.522L587.452 842.23L565.805 845.675L570.67 823.437" stroke="#172A32" stroke-width="1.19242" stroke-linecap="round" stroke-linejoin="round"/>
<path d="M492.572 502.082C492.572 502.082 459.935 506.969 462.546 538.579C463.432 549.296 481.802 641.878 481.802 641.878L567.48 633.735C567.48 633.735 544.468 515.768 529.782 505.992C515.094 496.216 492.572 502.082 492.572 502.082Z" fill="#13232C"/>
<path d="M481.802 641.878C481.802 641.878 485.938 668.035 495.184 692.713C509.115 729.894 521.051 748.37 517.704 775.932C512.692 817.221 496.947 840.507 496.947 840.507L533.18 846.301C533.18 846.301 555.767 770.504 552.422 759.646C546.548 708.811 541.127 630.186 541.127 630.186L481.802 641.878Z" fill="#13232C"/>
<path d="M561.603 620.86C561.603 620.86 604.84 683.844 606.798 728.325C608.394 764.579 594.039 829.857 594.039 829.857L563.774 828.903C563.774 828.903 574.591 745.864 567.898 725.819C548.316 690.626 518.96 647.725 518.96 647.725L561.603 620.86Z" fill="#13232C"/>
<path d="M483.761 515.523C483.761 515.523 505.791 508.924 514.114 531.409C522.436 553.894 515.077 569.705 501.7 572.117C473.785 577.149 453.895 518.946 483.761 515.523Z" fill="#4D7C87"/>
<path d="M537.369 535.335C538.118 537.669 528.312 543.629 528.312 543.629C526.792 539.685 524.955 535.871 522.817 532.225C521.07 529.364 519.08 526.658 516.867 524.139C513.135 520.656 508.239 515.768 502.754 513.347C500.763 512.425 498.69 511.688 496.563 511.146C492.179 510.025 491.899 505.595 496.367 504.831C498.577 504.163 500.881 503.857 503.19 503.925C505.524 503.994 507.841 504.343 510.091 504.964C512.45 505.442 514.747 506.19 516.935 507.193C519.082 508.201 521.135 509.397 523.071 510.766C525.17 512.053 533.181 522.284 537.369 535.335Z" fill="#4D7C87"/>
<path d="M493.376 462.795L490.04 484.325L474.932 470.476L469.567 459.782L475.602 454.09C475.602 454.09 498.405 435.676 502.095 431.49C505.783 427.305 517.852 450.716 507.457 460.425" fill="#13232C"/>
<path d="M487.514 480.574L489.391 506.969C489.391 506.969 498.815 511.735 504.201 511.002C507.385 510.581 510.286 508.958 512.309 506.467L503.588 480.737L487.514 480.574Z" fill="white" stroke="#172A32" stroke-width="1.19242" stroke-linecap="round" stroke-linejoin="round"/>
<path d="M505.417 455.414L489.261 461.783C489.261 461.783 490.944 469.126 490.595 469.978C490.591 469.98 485.978 472.763 485.975 472.765C483.731 474.318 483.515 477.879 485.49 480.724C487.464 483.567 490.881 484.613 493.124 483.06C493.634 482.7 494.053 482.226 494.348 481.676C498.996 486.374 502.342 488.522 508.486 488.522C520.14 488.522 505.417 455.414 505.417 455.414Z" fill="white" stroke="#172A32" stroke-width="0.794946" stroke-linecap="round" stroke-linejoin="round"/>
<path d="M548.384 427.851H539.082C540.164 448.77 529.194 468.104 516.616 483.373L533.111 497.06C548.977 463.563 548.384 427.851 548.384 427.851Z" fill="white" stroke="#172A32" stroke-width="1.19242" stroke-linecap="round" stroke-linejoin="round"/>
<path d="M480.736 516.303C478.532 518.905 476.62 521.741 475.036 524.761C472.009 530.448 472.009 538.285 476.907 541.217C492.572 551.973 507.26 534.408 516.734 522.986C518.692 520.611 520.519 518.214 522.237 515.682C523.955 513.154 525.564 510.681 527.071 508.048C528.181 506.228 529.228 504.658 530.221 502.804C531.244 500.903 532.2 498.984 533.111 497.06L516.616 483.373C516.387 483.649 485.718 510.88 480.736 516.303Z" fill="#4D7C87" stroke="#172A32" stroke-width="1.19242" stroke-linecap="round" stroke-linejoin="round"/>
<path d="M519.314 472.875L510.284 483.708L534.679 503.977L543.709 493.144L519.314 472.875Z" fill="#4D7C87" stroke="#172A32" stroke-width="1.19242" stroke-linecap="round" stroke-linejoin="round"/>
<path d="M558.42 611.237C558.42 611.237 506.118 625.666 478.007 622.203L480.06 647.308C480.06 647.308 534.378 633.974 559.807 620.698C560.256 620.462 559.829 619.271 559.829 619.271L558.42 611.237Z" fill="white" stroke="#172A32" stroke-width="1.19242" stroke-linecap="round" stroke-linejoin="round"/>
<path d="M582.666 858.579L580.707 856.136L561.387 854.837L559.737 860.127C559.737 860.127 615.793 866.482 616.772 862.326C617.085 860.998 617.396 860.222 617.293 859.552L582.666 858.579Z" fill="#4D7C87" stroke="#172A32" stroke-width="1.19242" stroke-linecap="round" stroke-linejoin="round"/>
<path d="M582.665 858.579L617.293 859.552C617.076 858.13 619.506 856.595 611.509 851.939C607.171 849.414 598.013 849.27 594.742 846.808C591.32 844.194 588.438 840.943 586.256 837.235C586.256 837.235 578.83 846.278 574.668 844.567C570.508 842.855 565.612 841.308 565.612 841.308L561.387 854.837L580.707 856.136L582.665 858.579Z" fill="#4D7C87" stroke="#172A32" stroke-width="1.19242" stroke-linecap="round" stroke-linejoin="round"/>
<path d="M514.946 873.007L513.083 870.49L493.83 868.444L491.974 873.665C491.974 873.665 547.741 882.189 548.88 878.074C549.246 876.758 549.586 875.994 549.51 875.322L514.946 873.007Z" fill="#4D7C87" stroke="#172A32" stroke-width="1.19242" stroke-linecap="round" stroke-linejoin="round"/>
<path d="M514.946 873.007L549.51 875.322C549.348 873.891 551.837 872.453 544.027 867.49C539.79 864.797 530.643 864.298 527.471 861.712C524.153 858.968 521.4 855.607 519.364 851.817C519.364 851.817 511.592 860.566 507.5 858.695C503.41 856.823 498.577 855.088 498.577 855.088L493.83 868.444L513.083 870.49L514.946 873.007Z" fill="#4D7C87" stroke="#172A32" stroke-width="1.19242" stroke-linecap="round" stroke-linejoin="round"/>
<path d="M549.793 432.061L538.397 431.554C537.925 431.248 537.494 430.882 537.115 430.466C536.535 429.814 537.841 427.568 537.841 427.568C537.841 427.568 533.8 420.857 532.99 415.2C532.181 409.542 527.863 403.885 530.561 403.885C533.26 403.885 533.26 408.735 534.61 408.195C535.284 407.927 535.626 403.498 534.984 399.153C534.344 394.809 532.721 390.55 534.61 390.955C538.387 391.762 540.067 405.677 540.067 405.677C540.067 405.677 540.466 401.217 540.574 396.543C540.694 391.529 540.596 386.278 542.973 386.377C545.026 386.46 544.864 391.068 545.293 395.675C545.606 398.707 546.092 401.718 546.749 404.694C546.749 404.694 548.176 389.565 549.793 391.18C551.413 392.796 549.844 406.236 550.812 406.256C551.777 406.277 553.226 396.881 554.575 397.69C555.925 398.497 554.036 414.659 554.036 414.659C554.036 414.659 554.297 424.176 550.52 428.485C550.52 428.485 552.068 431.432 549.793 432.061Z" fill="#13232C"/>
<path d="M534.687 557.666C535.889 560.787 535.815 563.72 534.521 564.217C533.228 564.713 531.205 562.586 530.001 559.465C528.8 556.342 528.874 553.408 530.17 552.912C531.461 552.416 533.484 554.544 534.687 557.666Z" fill="white"/>
<path d="M545.354 551.194C546.554 554.315 546.481 557.248 545.188 557.745C543.894 558.241 541.871 556.114 540.668 552.993C539.467 549.87 539.541 546.936 540.836 546.439C542.127 545.944 544.15 548.071 545.354 551.194Z" fill="white"/>
<path d="M477.133 619.328H498.046C499.71 619.328 501.306 619.989 502.483 621.163C503.66 622.338 504.321 623.932 504.321 625.594V667.771C504.321 669.432 503.66 671.026 502.483 672.2C501.307 673.375 499.711 674.035 498.047 674.035H477.132C475.468 674.035 473.872 673.375 472.696 672.2C471.519 671.026 470.858 669.432 470.858 667.771V625.593C470.858 623.932 471.519 622.338 472.696 621.163C473.873 619.988 475.468 619.328 477.133 619.328Z" fill="#DCE8F6" stroke="#172A32" stroke-width="1.19242" stroke-linecap="round" stroke-linejoin="round"/>
<path d="M1356.99 710.233C1356.85 708.345 1356.71 706.565 1356.58 704.882C1356.45 703.199 1356.44 701.618 1356.36 700.16C1356.29 698.702 1356.21 697.357 1356.22 696.143C1356.19 694.548 1356.18 693.209 1356.18 692.084C1358.96 689.354 1378.91 668.214 1362.51 638.174C1362.51 638.174 1332.21 660.071 1355.63 692.071C1355.46 693.176 1355.27 694.511 1355.09 696.084C1354.78 698.513 1354.55 701.475 1354.33 704.884C1354.25 706.585 1354.18 708.4 1354.1 710.31C1353.99 712.23 1354.28 714.231 1354.37 716.328C1354.48 717.961 1354.58 719.667 1354.7 721.407C1353.58 719.933 1352.1 717.994 1350.61 716.042C1349.86 715.064 1349.11 714.076 1348.4 713.166C1348.13 712.834 1347.87 712.511 1347.61 712.195C1352.15 670.574 1321.96 664.701 1321.96 664.701C1322.71 708.587 1340.5 712.392 1346 712.517C1346.4 713.012 1346.83 713.531 1347.28 714.085C1347.98 714.998 1348.73 715.973 1349.47 716.942C1350.96 718.89 1352.44 720.837 1353.55 722.301C1353.72 722.472 1353.78 722.69 1353.96 722.815C1354.14 722.95 1354.3 723.072 1354.45 723.195C1354.62 723.316 1354.74 723.402 1354.87 723.508C1355.09 725.555 1355.33 727.651 1355.55 729.814C1355.69 731.009 1355.79 732.221 1355.96 733.443C1356.15 734.657 1356.35 735.89 1356.54 737.135C1356.94 739.627 1357.34 742.174 1357.75 744.76C1358.26 747.365 1358.74 749.921 1359.33 752.568C1359.61 753.819 1359.91 755.084 1360.2 756.345C1360.03 756.011 1359.85 755.686 1359.65 755.371C1359.29 754.78 1358.93 754.183 1358.56 753.58C1357.85 752.383 1357.12 751.176 1356.44 750.051C1355.7 748.958 1355.01 747.941 1354.42 747.064C1354.29 746.851 1354.15 746.646 1353.99 746.45C1353.81 746.28 1353.63 746.13 1353.47 745.974C1353.32 745.839 1353.2 745.75 1353.06 745.635C1352.17 739.167 1346.71 713.634 1315.2 707.859C1315.2 707.859 1313.18 745.096 1352.74 747.101C1352.77 747.167 1352.8 747.228 1352.82 747.299C1352.94 747.512 1353.08 747.717 1353.23 747.91C1353.82 748.769 1354.49 749.768 1355.22 750.837C1355.88 751.947 1356.61 753.128 1357.32 754.324C1357.67 754.914 1358.03 755.506 1358.38 756.09C1358.73 756.654 1359.05 757.238 1359.33 757.839C1359.91 759.005 1360.44 760.089 1360.9 761.014C1360.99 761.245 1361.11 761.466 1361.24 761.673C1361.33 761.787 1361.42 761.889 1361.51 762C1362.66 766.844 1363.83 771.724 1364.69 776.645C1365.23 779.347 1365.55 782.074 1365.92 784.776C1366.1 786.133 1366.16 787.499 1366.29 788.844C1366.39 790.201 1366.53 791.552 1366.53 792.899C1366.53 793.207 1366.54 793.501 1366.54 793.811C1366.45 793.627 1366.36 793.442 1366.26 793.256C1365.82 792.404 1365.34 791.576 1364.82 790.775C1364.32 789.905 1363.67 789.105 1363.08 788.236C1362.42 787.425 1361.76 786.586 1361.03 785.807C1360.32 785.129 1359.65 784.391 1358.89 783.777C1359.07 783.713 1359.25 783.674 1359.44 783.614C1359.44 783.614 1349.15 752.866 1315.8 758.602C1315.8 758.602 1323.64 793.77 1357.21 784.271C1357.4 784.424 1357.58 784.567 1357.76 784.719C1358.54 785.368 1359.27 786.063 1359.96 786.8C1360.66 787.539 1361.29 788.343 1361.92 789.117C1362.49 789.945 1363.11 790.713 1363.58 791.55C1364.11 792.356 1364.57 793.155 1364.97 793.936C1365.4 794.707 1365.74 795.463 1366.07 796.155C1366.25 796.498 1366.32 796.867 1366.51 797.165C1366.54 797.209 1366.56 797.255 1366.59 797.298C1366.6 798.512 1366.59 799.718 1366.51 800.919C1366.45 802.238 1366.4 803.549 1366.34 804.852C1366.23 806.157 1366.07 807.451 1365.94 808.727C1365.82 810.01 1365.68 811.275 1365.55 812.534C1365.35 813.789 1365.15 815.027 1364.95 816.25C1364.54 818.702 1364.2 821.106 1363.64 823.407C1363.12 825.718 1362.63 827.966 1362.15 830.149C1362.01 830.658 1361.88 831.158 1361.74 831.66C1361.62 831.172 1361.49 830.679 1361.33 830.193C1360.69 828.227 1359.78 826.36 1358.62 824.65C1358.5 824.493 1358.44 824.279 1358.28 824.16C1358.13 824.029 1357.97 823.919 1357.83 823.812C1357.64 823.672 1357.48 823.573 1357.32 823.465C1357.02 820.054 1353.88 795.065 1326.21 792.223C1326.21 792.223 1324.43 824.971 1356.71 823.869C1356.78 824.061 1356.85 824.252 1356.93 824.485C1356.99 824.643 1357.04 824.818 1357.11 824.997C1357.17 825.168 1357.33 825.288 1357.42 825.463C1358.5 827.06 1359.35 828.802 1359.94 830.637C1360.27 831.608 1360.5 832.607 1360.63 833.621C1360.71 834.084 1360.76 834.55 1360.78 835.018C1360.78 835.088 1360.78 835.146 1360.78 835.213C1360.67 835.605 1360.57 835.997 1360.47 836.382C1360.19 837.375 1359.92 838.358 1359.66 839.317C1359.38 840.259 1359.05 841.175 1358.84 842.098C1358.38 843.937 1357.95 845.675 1357.54 847.315C1356.77 850.61 1355.92 853.431 1355.24 855.765C1353.89 860.443 1353.17 863.143 1353.17 863.143C1353.17 863.143 1354.32 860.609 1356.26 856.133C1357.23 853.886 1358.43 851.175 1359.61 847.981C1360.04 846.891 1360.49 845.733 1360.96 844.542C1361.06 844.492 1361.15 844.45 1361.26 844.393C1361.43 844.314 1361.6 844.226 1361.79 844.134C1361.97 844.055 1362.08 843.854 1362.26 843.724C1362.59 843.399 1362.94 843.102 1363.32 842.837C1363.72 842.562 1364.16 842.269 1364.6 841.969C1365.06 841.667 1365.5 841.33 1365.99 841.036C1366.49 840.793 1367.01 840.527 1367.52 840.264C1368.01 839.983 1368.53 839.743 1369.07 839.547C1369.6 839.341 1370.12 839.148 1370.61 838.965C1371.1 838.784 1371.6 838.636 1372.1 838.523C1372.58 838.41 1373.02 838.252 1373.44 838.192C1373.65 838.175 1373.86 838.14 1374.06 838.087C1374.15 838.037 1374.23 837.999 1374.33 837.955C1380.03 839.467 1406.42 844.694 1423.94 817.208C1423.94 817.208 1390.48 801.521 1373.66 836.675C1373.5 836.7 1373.34 836.754 1373.16 836.767C1372.71 836.837 1372.25 836.996 1371.74 837.114C1371.2 837.238 1370.67 837.394 1370.16 837.583C1369.63 837.78 1369.07 837.988 1368.51 838.204C1367.95 838.418 1367.4 838.67 1366.87 838.96C1366.33 839.234 1365.79 839.513 1365.26 839.79C1364.74 840.089 1364.27 840.441 1363.8 840.754C1363.33 841.073 1362.87 841.385 1362.44 841.682C1362.24 841.809 1362.04 841.958 1361.87 842.125C1362.41 840.562 1362.77 838.87 1363.27 837.156C1363.82 835.131 1364.39 833.026 1364.99 830.843C1365.46 828.626 1365.97 826.344 1366.49 824C1367.06 821.659 1367.41 819.203 1367.82 816.704C1368.02 815.459 1368.23 814.194 1368.43 812.922C1368.51 812.263 1368.58 811.589 1368.64 810.923C1368.72 810.894 1368.79 810.863 1368.87 810.838C1369.01 810.776 1369.06 810.62 1369.18 810.531C1370.03 809.683 1371.17 808.553 1372.29 807.424C1373.43 806.293 1374.56 805.16 1375.41 804.306C1375.47 804.225 1375.56 804.17 1375.62 804.101C1382.88 803.05 1407.35 797.264 1413.2 766.656C1413.2 766.656 1375.79 764.359 1373.61 804.053C1372.9 804.766 1372.09 805.586 1371.27 806.392C1370.43 807.232 1369.59 808.071 1368.86 808.795C1368.99 807.563 1369.14 806.324 1369.24 805.061C1369.3 803.723 1369.35 802.373 1369.41 801.022C1369.61 798.311 1369.48 795.565 1369.44 792.786C1369.44 791.404 1369.28 790.021 1369.19 788.627C1369.06 787.241 1369 785.834 1368.81 784.443C1368.53 782.378 1368.25 780.301 1367.91 778.237C1367.95 778.01 1367.98 777.781 1367.99 777.552C1368.14 776.254 1368.2 774.739 1368.49 773.11C1368.75 771.486 1368.99 769.751 1369.34 768.024C1369.97 764.572 1370.74 761.14 1371.34 758.565C1371.42 758.262 1371.49 757.955 1371.55 757.644C1371.56 757.477 1371.57 757.316 1371.57 757.156C1375.2 755.355 1401.75 740.922 1390.08 708.45C1390.08 708.45 1353.3 731.075 1370.53 756.422C1370.52 756.453 1370.51 756.484 1370.49 756.513C1370.38 756.764 1370.26 757.028 1370.13 757.311C1370.02 757.593 1370.02 757.919 1369.92 758.239C1369.31 760.826 1368.54 764.273 1367.91 767.761C1367.55 769.496 1367.31 771.261 1367.05 772.907C1367.04 773.025 1367.03 773.141 1367.01 773.259C1366.11 768.716 1365.04 764.255 1364 759.855C1363.35 757.199 1362.77 754.566 1362.18 751.982C1361.6 749.395 1361.11 746.737 1360.61 744.236C1360.21 741.686 1359.81 739.167 1359.42 736.707C1359.23 735.478 1359.04 734.26 1358.84 733.057C1358.68 731.853 1358.58 730.655 1358.44 729.478C1358.21 727.361 1358 725.313 1357.78 723.308C1357.86 722.728 1357.97 722.154 1358.12 721.589C1358.28 720.85 1358.48 720.121 1358.72 719.403C1358.94 718.676 1359.19 717.96 1359.49 717.261C1359.75 716.563 1360.1 715.909 1360.39 715.256C1360.98 714.092 1361.64 712.966 1362.37 711.884C1362.51 711.636 1362.71 711.45 1362.82 711.209C1362.93 710.966 1363.05 710.73 1363.14 710.517C1363.14 710.502 1363.15 710.492 1363.16 710.473C1368.93 708.683 1387.47 701.051 1382.54 678.104C1382.54 678.104 1355.98 684.334 1361.43 710.65C1361.35 710.796 1361.26 710.935 1361.16 711.065C1360.4 712.2 1359.7 713.381 1359.09 714.603C1358.78 715.293 1358.42 715.971 1358.15 716.711C1357.88 717.355 1357.64 718.016 1357.43 718.69C1357.38 717.834 1357.34 716.992 1357.28 716.165C1357.12 714.096 1357.11 712.117 1356.99 710.233Z" fill="#375965"/>
<path d="M313.333 574.049C313.334 574.945 313.068 575.82 312.569 576.565C312.071 577.31 311.363 577.89 310.534 578.233C309.705 578.575 308.794 578.665 307.914 578.49C307.034 578.316 306.226 577.885 305.592 577.251C304.958 576.618 304.526 575.811 304.351 574.933C304.176 574.055 304.266 573.144 304.609 572.317C304.952 571.49 305.534 570.782 306.279 570.285C307.025 569.787 307.902 569.522 308.799 569.522C310.001 569.522 311.155 569.999 312.005 570.848C312.856 571.697 313.333 572.849 313.333 574.049Z" fill="#4D7C87"/>
<path d="M339.131 574.049C339.131 574.945 338.866 575.82 338.367 576.565C337.869 577.31 337.161 577.89 336.332 578.233C335.503 578.575 334.592 578.665 333.712 578.49C332.832 578.316 332.024 577.885 331.39 577.251C330.756 576.618 330.324 575.811 330.149 574.933C329.974 574.055 330.064 573.144 330.407 572.317C330.75 571.49 331.331 570.782 332.077 570.285C332.823 569.787 333.7 569.522 334.597 569.522C335.799 569.522 336.953 569.999 337.803 570.848C338.654 571.697 339.131 572.849 339.131 574.049Z" fill="#4D7C87"/>
<path d="M364.931 574.049C364.931 574.945 364.665 575.821 364.167 576.565C363.668 577.31 362.96 577.89 362.131 578.233C361.302 578.576 360.39 578.665 359.511 578.49C358.631 578.315 357.823 577.884 357.189 577.251C356.554 576.617 356.123 575.81 355.948 574.932C355.773 574.053 355.863 573.143 356.207 572.315C356.551 571.488 357.132 570.781 357.878 570.284C358.625 569.787 359.502 569.522 360.399 569.522C360.994 569.522 361.583 569.639 362.133 569.867C362.683 570.095 363.183 570.428 363.604 570.848C364.025 571.269 364.359 571.768 364.586 572.317C364.814 572.866 364.931 573.455 364.931 574.049Z" fill="#4D7C87"/>
<path d="M390.732 574.049C390.732 574.945 390.466 575.82 389.968 576.565C389.469 577.309 388.761 577.89 387.933 578.232C387.104 578.575 386.192 578.665 385.312 578.49C384.433 578.315 383.625 577.884 382.991 577.251C382.356 576.618 381.924 575.811 381.749 574.933C381.574 574.055 381.664 573.144 382.008 572.317C382.351 571.49 382.932 570.782 383.678 570.285C384.424 569.788 385.3 569.522 386.197 569.522C386.793 569.522 387.382 569.639 387.933 569.866C388.483 570.094 388.983 570.427 389.404 570.848C389.825 571.268 390.159 571.767 390.387 572.317C390.615 572.866 390.732 573.455 390.732 574.049Z" fill="#4D7C87"/>
<path d="M416.533 574.049C416.533 574.945 416.268 575.82 415.769 576.565C415.271 577.309 414.563 577.89 413.734 578.233C412.905 578.575 411.994 578.665 411.114 578.49C410.234 578.315 409.426 577.884 408.792 577.251C408.158 576.618 407.726 575.811 407.551 574.933C407.376 574.054 407.466 573.144 407.809 572.317C408.153 571.489 408.734 570.782 409.48 570.285C410.225 569.787 411.102 569.522 411.999 569.522C413.202 569.522 414.355 569.999 415.205 570.848C416.056 571.697 416.533 572.849 416.533 574.049Z" fill="#4D7C87"/>
<path d="M442.332 574.049C442.332 574.945 442.066 575.821 441.568 576.565C441.07 577.31 440.361 577.89 439.532 578.233C438.704 578.576 437.792 578.665 436.912 578.49C436.032 578.315 435.224 577.884 434.59 577.25C433.956 576.617 433.524 575.81 433.349 574.932C433.175 574.053 433.265 573.143 433.608 572.315C433.952 571.488 434.534 570.781 435.28 570.284C436.026 569.787 436.903 569.522 437.8 569.522C439.002 569.523 440.155 570 441.005 570.849C441.855 571.698 442.332 572.849 442.332 574.049Z" fill="#4D7C87"/>
<path d="M313.333 602.222C313.334 603.118 313.068 603.994 312.57 604.738C312.072 605.483 311.364 606.064 310.535 606.407C309.707 606.75 308.795 606.84 307.915 606.666C307.035 606.491 306.227 606.06 305.593 605.427C304.958 604.794 304.526 603.987 304.351 603.108C304.176 602.23 304.266 601.32 304.609 600.492C304.952 599.665 305.533 598.958 306.279 598.46C307.025 597.962 307.902 597.697 308.799 597.697C310.001 597.698 311.154 598.175 312.004 599.023C312.854 599.872 313.332 601.022 313.333 602.222Z" fill="#4D7C87"/>
<path d="M339.132 602.222C339.132 603.118 338.867 603.994 338.369 604.738C337.871 605.483 337.163 606.064 336.334 606.407C335.505 606.75 334.593 606.84 333.714 606.666C332.834 606.491 332.026 606.06 331.391 605.427C330.757 604.794 330.325 603.987 330.149 603.108C329.974 602.23 330.064 601.32 330.407 600.492C330.75 599.665 331.332 598.958 332.078 598.46C332.823 597.962 333.7 597.697 334.597 597.697C335.799 597.698 336.952 598.175 337.802 599.023C338.652 599.872 339.131 601.022 339.132 602.222Z" fill="#4D7C87"/>
<path d="M364.931 602.222C364.931 603.118 364.666 603.994 364.168 604.739C363.67 605.484 362.961 606.064 362.133 606.407C361.304 606.75 360.392 606.84 359.512 606.665C358.632 606.491 357.824 606.059 357.189 605.426C356.555 604.793 356.123 603.986 355.948 603.107C355.773 602.229 355.863 601.318 356.207 600.491C356.551 599.663 357.132 598.956 357.878 598.459C358.624 597.962 359.502 597.696 360.399 597.697C361.601 597.698 362.753 598.175 363.603 599.023C364.452 599.872 364.93 601.022 364.931 602.222Z" fill="#4D7C87"/>
<path d="M390.732 602.222C390.732 603.118 390.467 603.993 389.969 604.738C389.471 605.483 388.762 606.064 387.934 606.407C387.105 606.75 386.193 606.84 385.314 606.665C384.434 606.491 383.626 606.06 382.991 605.427C382.357 604.793 381.925 603.987 381.75 603.108C381.574 602.23 381.664 601.32 382.007 600.492C382.351 599.665 382.932 598.958 383.678 598.46C384.423 597.962 385.3 597.697 386.197 597.697C387.399 597.697 388.552 598.174 389.403 599.023C390.253 599.871 390.731 601.022 390.732 602.222Z" fill="#4D7C87"/>
<path d="M416.533 602.222C416.534 603.118 416.268 603.993 415.77 604.738C415.272 605.483 414.564 606.064 413.735 606.407C412.907 606.75 411.995 606.84 411.115 606.665C410.235 606.491 409.427 606.06 408.793 605.426C408.158 604.793 407.726 603.987 407.551 603.108C407.376 602.23 407.466 601.319 407.809 600.492C408.152 599.665 408.734 598.957 409.479 598.46C410.225 597.962 411.102 597.697 411.999 597.697C413.201 597.698 414.354 598.175 415.204 599.023C416.054 599.872 416.532 601.022 416.533 602.222Z" fill="#4D7C87"/>
<path d="M442.332 602.222C442.332 603.118 442.066 603.994 441.568 604.739C441.07 605.484 440.362 606.064 439.533 606.407C438.704 606.75 437.792 606.84 436.913 606.665C436.033 606.491 435.224 606.059 434.59 605.426C433.956 604.793 433.524 603.986 433.349 603.107C433.174 602.229 433.264 601.318 433.608 600.491C433.951 599.663 434.533 598.956 435.279 598.459C436.025 597.962 436.902 597.696 437.799 597.697C439.001 597.698 440.153 598.175 441.003 599.024C441.853 599.872 442.33 601.023 442.332 602.222Z" fill="#4D7C87"/>
<path d="M313.333 630.399C313.333 631.294 313.067 632.17 312.568 632.914C312.07 633.658 311.361 634.238 310.533 634.581C309.704 634.923 308.792 635.013 307.913 634.838C307.033 634.663 306.225 634.231 305.591 633.598C304.957 632.965 304.525 632.158 304.351 631.28C304.176 630.402 304.266 629.491 304.609 628.664C304.952 627.837 305.534 627.13 306.28 626.632C307.025 626.135 307.902 625.87 308.799 625.87C309.395 625.87 309.984 625.987 310.535 626.214C311.085 626.442 311.585 626.776 312.006 627.196C312.427 627.617 312.761 628.116 312.989 628.666C313.217 629.215 313.334 629.804 313.333 630.399Z" fill="#4D7C87"/>
<path d="M339.132 630.399C339.132 631.294 338.865 632.17 338.367 632.914C337.868 633.658 337.16 634.238 336.331 634.581C335.503 634.923 334.591 635.013 333.711 634.838C332.832 634.663 332.024 634.231 331.39 633.598C330.756 632.965 330.324 632.158 330.149 631.28C329.974 630.402 330.064 629.491 330.408 628.664C330.751 627.837 331.332 627.13 332.078 626.632C332.824 626.135 333.701 625.87 334.597 625.87C335.193 625.87 335.783 625.987 336.333 626.214C336.883 626.442 337.383 626.776 337.805 627.196C338.226 627.617 338.56 628.116 338.787 628.666C339.015 629.215 339.132 629.804 339.132 630.399Z" fill="#4D7C87"/>
<path d="M364.931 630.399C364.931 631.294 364.664 632.17 364.166 632.914C363.667 633.659 362.959 634.239 362.13 634.581C361.301 634.923 360.389 635.013 359.509 634.838C358.63 634.663 357.822 634.231 357.188 633.597C356.554 632.964 356.122 632.157 355.948 631.278C355.773 630.4 355.864 629.49 356.207 628.662C356.551 627.835 357.133 627.128 357.879 626.631C358.625 626.134 359.502 625.869 360.399 625.87C360.994 625.87 361.584 625.987 362.134 626.215C362.684 626.442 363.184 626.776 363.605 627.197C364.026 627.617 364.359 628.116 364.587 628.666C364.815 629.215 364.931 629.804 364.931 630.399Z" fill="#4D7C87"/>
<path d="M390.732 630.399C390.731 631.294 390.465 632.169 389.967 632.914C389.468 633.658 388.76 634.238 387.931 634.581C387.103 634.923 386.191 635.012 385.311 634.837C384.432 634.663 383.624 634.231 382.99 633.598C382.356 632.965 381.924 632.158 381.749 631.28C381.574 630.401 381.664 629.491 382.008 628.664C382.351 627.837 382.932 627.13 383.678 626.632C384.424 626.135 385.3 625.87 386.197 625.87C386.793 625.869 387.383 625.986 387.933 626.214C388.484 626.442 388.984 626.775 389.405 627.196C389.826 627.616 390.16 628.116 390.388 628.665C390.615 629.215 390.732 629.804 390.732 630.399Z" fill="#4D7C87"/>
<path d="M416.533 630.399C416.533 631.294 416.267 632.169 415.768 632.914C415.27 633.658 414.561 634.238 413.733 634.581C412.904 634.923 411.992 635.012 411.113 634.837C410.233 634.662 409.425 634.231 408.791 633.598C408.157 632.965 407.726 632.158 407.551 631.279C407.376 630.401 407.466 629.491 407.809 628.664C408.153 627.837 408.734 627.13 409.48 626.632C410.226 626.135 411.102 625.869 411.999 625.87C412.595 625.87 413.185 625.987 413.735 626.214C414.285 626.442 414.785 626.776 415.206 627.196C415.627 627.617 415.961 628.116 416.189 628.666C416.417 629.215 416.534 629.804 416.533 630.399Z" fill="#4D7C87"/>
<path d="M442.332 630.399C442.332 631.294 442.066 632.17 441.567 632.914C441.068 633.659 440.36 634.239 439.531 634.581C438.702 634.923 437.79 635.013 436.911 634.838C436.031 634.662 435.223 634.231 434.589 633.597C433.955 632.964 433.524 632.157 433.349 631.278C433.175 630.4 433.265 629.49 433.609 628.662C433.952 627.835 434.534 627.128 435.28 626.631C436.026 626.134 436.903 625.869 437.8 625.87C438.395 625.87 438.985 625.987 439.535 626.215C440.085 626.443 440.585 626.776 441.006 627.197C441.427 627.618 441.76 628.117 441.988 628.666C442.216 629.216 442.333 629.804 442.332 630.399Z" fill="#4D7C87"/>
<path d="M313.333 658.573C313.334 659.469 313.068 660.344 312.57 661.089C312.071 661.834 311.363 662.414 310.535 662.757C309.706 663.1 308.794 663.19 307.914 663.015C307.035 662.84 306.226 662.409 305.592 661.776C304.958 661.143 304.526 660.336 304.351 659.457C304.176 658.579 304.266 657.669 304.609 656.841C304.952 656.014 305.533 655.307 306.279 654.809C307.025 654.312 307.902 654.046 308.799 654.046C309.394 654.046 309.984 654.163 310.534 654.391C311.084 654.618 311.584 654.952 312.005 655.372C312.427 655.792 312.761 656.291 312.988 656.841C313.216 657.39 313.333 657.979 313.333 658.573Z" fill="#4D7C87"/>
<path d="M339.131 658.573C339.132 659.469 338.866 660.344 338.368 661.089C337.869 661.834 337.161 662.414 336.333 662.757C335.504 663.1 334.592 663.19 333.712 663.015C332.832 662.84 332.024 662.409 331.39 661.776C330.756 661.143 330.324 660.336 330.149 659.457C329.974 658.579 330.064 657.669 330.407 656.841C330.75 656.014 331.331 655.307 332.077 654.809C332.823 654.312 333.7 654.046 334.597 654.046C335.192 654.046 335.782 654.163 336.332 654.391C336.882 654.618 337.382 654.951 337.803 655.372C338.224 655.792 338.559 656.291 338.786 656.841C339.014 657.39 339.131 657.979 339.131 658.573Z" fill="#4D7C87"/>
<path d="M364.931 658.573C364.931 659.469 364.665 660.344 364.167 661.089C363.669 661.834 362.96 662.414 362.132 662.757C361.303 663.1 360.391 663.19 359.511 663.015C358.631 662.84 357.823 662.408 357.189 661.775C356.555 661.142 356.123 660.335 355.948 659.456C355.773 658.578 355.863 657.667 356.207 656.84C356.551 656.012 357.132 655.305 357.878 654.808C358.625 654.311 359.502 654.046 360.399 654.046C360.994 654.046 361.584 654.163 362.134 654.391C362.684 654.618 363.183 654.952 363.604 655.372C364.025 655.793 364.359 656.292 364.587 656.841C364.814 657.39 364.931 657.979 364.931 658.573Z" fill="#4D7C87"/>
<path d="M390.732 658.573C390.732 659.469 390.466 660.344 389.968 661.089C389.47 661.833 388.762 662.414 387.933 662.757C387.104 663.099 386.192 663.189 385.313 663.015C384.433 662.84 383.625 662.409 382.991 661.776C382.356 661.142 381.925 660.336 381.749 659.457C381.574 658.579 381.664 657.669 382.007 656.841C382.351 656.014 382.932 655.307 383.678 654.809C384.423 654.312 385.3 654.046 386.197 654.046C386.793 654.046 387.383 654.163 387.933 654.39C388.483 654.618 388.983 654.951 389.404 655.371C389.825 655.792 390.159 656.291 390.387 656.84C390.615 657.39 390.732 657.979 390.732 658.573Z" fill="#4D7C87"/>
<path d="M416.533 658.573C416.534 659.469 416.268 660.344 415.77 661.089C415.271 661.833 414.563 662.414 413.735 662.757C412.906 663.099 411.994 663.189 411.114 663.015C410.235 662.84 409.427 662.409 408.792 661.775C408.158 661.142 407.726 660.335 407.551 659.457C407.376 658.579 407.466 657.669 407.809 656.841C408.152 656.014 408.734 655.307 409.48 654.809C410.225 654.312 411.102 654.046 411.999 654.046C412.595 654.046 413.184 654.163 413.734 654.391C414.285 654.618 414.784 654.952 415.206 655.372C415.627 655.792 415.961 656.291 416.188 656.841C416.416 657.39 416.534 657.979 416.533 658.573Z" fill="#4D7C87"/>
<path d="M442.332 658.573C442.332 659.469 442.067 660.344 441.568 661.089C441.07 661.834 440.362 662.414 439.533 662.757C438.704 663.1 437.792 663.189 436.912 663.015C436.032 662.84 435.224 662.408 434.59 661.775C433.956 661.142 433.524 660.335 433.349 659.456C433.175 658.578 433.265 657.667 433.608 656.84C433.952 656.012 434.534 655.305 435.28 654.808C436.026 654.311 436.903 654.046 437.8 654.046C439.002 654.047 440.155 654.524 441.005 655.373C441.855 656.222 442.332 657.373 442.332 658.573Z" fill="#4D7C87"/>
<path d="M981.538 333.763C981.539 334.422 981.343 335.067 980.976 335.615C980.609 336.163 980.088 336.59 979.478 336.842C978.869 337.095 978.197 337.161 977.55 337.032C976.902 336.904 976.308 336.586 975.841 336.12C975.374 335.654 975.056 335.06 974.927 334.414C974.799 333.767 974.865 333.097 975.117 332.488C975.37 331.88 975.798 331.359 976.347 330.993C976.896 330.627 977.541 330.432 978.202 330.432C979.086 330.432 979.935 330.783 980.561 331.408C981.186 332.033 981.538 332.88 981.538 333.763Z" fill="#375965"/>
<path d="M1000.52 333.763C1000.52 334.422 1000.33 335.067 999.963 335.615C999.596 336.163 999.075 336.59 998.465 336.842C997.855 337.094 997.184 337.16 996.537 337.032C995.889 336.903 995.295 336.586 994.828 336.12C994.361 335.654 994.043 335.06 993.914 334.414C993.786 333.767 993.852 333.097 994.104 332.488C994.357 331.88 994.785 331.359 995.334 330.993C995.883 330.627 996.528 330.432 997.188 330.432C998.073 330.432 998.921 330.783 999.547 331.408C1000.17 332.032 1000.52 332.88 1000.52 333.763Z" fill="#375965"/>
<path d="M1019.51 333.763C1019.51 334.423 1019.32 335.067 1018.95 335.615C1018.58 336.164 1018.06 336.591 1017.45 336.843C1016.84 337.095 1016.17 337.162 1015.52 337.033C1014.87 336.904 1014.28 336.587 1013.81 336.12C1013.35 335.654 1013.03 335.06 1012.9 334.413C1012.77 333.767 1012.84 333.097 1013.09 332.488C1013.34 331.879 1013.77 331.358 1014.32 330.992C1014.87 330.626 1015.52 330.431 1016.18 330.432C1017.06 330.432 1017.91 330.783 1018.53 331.408C1019.16 332.033 1019.51 332.88 1019.51 333.763Z" fill="#375965"/>
<path d="M1038.5 333.763C1038.5 334.422 1038.3 335.067 1037.94 335.615C1037.57 336.163 1037.05 336.59 1036.44 336.843C1035.83 337.095 1035.16 337.161 1034.51 337.032C1033.86 336.904 1033.27 336.586 1032.8 336.12C1032.34 335.654 1032.02 335.06 1031.89 334.414C1031.76 333.767 1031.83 333.097 1032.08 332.488C1032.33 331.879 1032.76 331.359 1033.31 330.993C1033.86 330.627 1034.5 330.431 1035.16 330.432C1035.6 330.432 1036.04 330.518 1036.44 330.685C1036.84 330.853 1037.21 331.098 1037.52 331.408C1037.83 331.717 1038.08 332.084 1038.25 332.488C1038.41 332.893 1038.5 333.326 1038.5 333.763Z" fill="#375965"/>
<path d="M1057.49 333.763C1057.49 334.422 1057.29 335.067 1056.93 335.615C1056.56 336.163 1056.04 336.59 1055.43 336.842C1054.82 337.095 1054.15 337.161 1053.5 337.032C1052.85 336.904 1052.26 336.587 1051.79 336.121C1051.33 335.655 1051.01 335.061 1050.88 334.415C1050.75 333.768 1050.82 333.098 1051.07 332.489C1051.32 331.88 1051.75 331.36 1052.3 330.994C1052.85 330.627 1053.49 330.432 1054.15 330.432C1055.04 330.432 1055.88 330.783 1056.51 331.407C1057.14 332.032 1057.49 332.88 1057.49 333.763Z" fill="#375965"/>
<path d="M1076.48 333.763C1076.48 334.423 1076.28 335.067 1075.91 335.616C1075.55 336.164 1075.03 336.591 1074.41 336.844C1073.8 337.096 1073.13 337.162 1072.49 337.034C1071.84 336.905 1071.24 336.587 1070.78 336.121C1070.31 335.655 1069.99 335.061 1069.86 334.414C1069.73 333.767 1069.8 333.097 1070.05 332.488C1070.31 331.879 1070.73 331.359 1071.28 330.993C1071.83 330.626 1072.48 330.431 1073.14 330.432C1074.02 330.432 1074.87 330.784 1075.5 331.408C1076.12 332.033 1076.47 332.88 1076.48 333.763Z" fill="#375965"/>
<path d="M981.538 354.498C981.539 355.157 981.343 355.801 980.977 356.349C980.61 356.898 980.089 357.325 979.479 357.578C978.869 357.83 978.198 357.896 977.551 357.768C976.903 357.64 976.308 357.322 975.841 356.856C975.374 356.39 975.056 355.796 974.927 355.15C974.799 354.503 974.865 353.833 975.117 353.224C975.37 352.615 975.798 352.095 976.347 351.729C976.896 351.362 977.541 351.167 978.202 351.167C979.086 351.168 979.935 351.519 980.56 352.143C981.186 352.767 981.538 353.614 981.538 354.498Z" fill="#375965"/>
<path d="M1000.52 354.498C1000.53 355.157 1000.33 355.801 999.963 356.349C999.597 356.897 999.076 357.325 998.466 357.577C997.856 357.83 997.185 357.896 996.537 357.767C995.89 357.639 995.295 357.322 994.828 356.856C994.361 356.39 994.043 355.796 993.915 355.15C993.786 354.503 993.852 353.833 994.104 353.224C994.357 352.615 994.785 352.095 995.334 351.729C995.882 351.363 996.528 351.167 997.188 351.167C998.073 351.168 998.921 351.519 999.547 352.143C1000.17 352.767 1000.52 353.614 1000.52 354.498Z" fill="#375965"/>
<path d="M1019.51 354.498C1019.51 355.157 1019.32 355.802 1018.95 356.35C1018.58 356.898 1018.06 357.326 1017.45 357.578C1016.84 357.831 1016.17 357.897 1015.52 357.769C1014.88 357.64 1014.28 357.323 1013.81 356.856C1013.35 356.39 1013.03 355.796 1012.9 355.149C1012.77 354.503 1012.84 353.833 1013.09 353.223C1013.34 352.614 1013.77 352.094 1014.32 351.728C1014.87 351.362 1015.52 351.167 1016.18 351.167C1017.06 351.168 1017.91 351.519 1018.53 352.143C1019.16 352.768 1019.51 353.614 1019.51 354.498Z" fill="#375965"/>
<path d="M1038.5 354.498C1038.5 355.157 1038.3 355.801 1037.94 356.35C1037.57 356.898 1037.05 357.325 1036.44 357.578C1035.83 357.83 1035.16 357.896 1034.51 357.768C1033.86 357.639 1033.27 357.322 1032.8 356.856C1032.34 356.39 1032.02 355.796 1031.89 355.15C1031.76 354.503 1031.83 353.833 1032.08 353.224C1032.33 352.615 1032.76 352.094 1033.31 351.728C1033.86 351.362 1034.5 351.167 1035.16 351.167C1036.05 351.167 1036.9 351.518 1037.52 352.143C1038.15 352.767 1038.5 353.614 1038.5 354.498Z" fill="#375965"/>
<path d="M1057.49 354.498C1057.49 355.157 1057.29 355.801 1056.93 356.349C1056.56 356.898 1056.04 357.325 1055.43 357.578C1054.82 357.83 1054.15 357.896 1053.5 357.768C1052.85 357.64 1052.26 357.323 1051.79 356.857C1051.33 356.391 1051.01 355.797 1050.88 355.151C1050.75 354.504 1050.82 353.834 1051.07 353.225C1051.32 352.616 1051.75 352.096 1052.3 351.729C1052.85 351.363 1053.49 351.167 1054.15 351.167C1055.04 351.167 1055.88 351.518 1056.51 352.143C1057.14 352.767 1057.49 353.614 1057.49 354.498Z" fill="#375965"/>
<path d="M1076.48 354.498C1076.48 355.157 1076.28 355.802 1075.91 356.35C1075.55 356.899 1075.03 357.326 1074.42 357.579C1073.81 357.831 1073.13 357.898 1072.49 357.769C1071.84 357.641 1071.24 357.323 1070.78 356.857C1070.31 356.391 1069.99 355.797 1069.86 355.15C1069.73 354.503 1069.8 353.833 1070.05 353.224C1070.31 352.615 1070.73 352.094 1071.28 351.728C1071.83 351.362 1072.48 351.167 1073.14 351.167C1074.02 351.168 1074.87 351.519 1075.5 352.144C1076.12 352.768 1076.47 353.615 1076.48 354.498Z" fill="#375965"/>
<path d="M981.538 375.234C981.538 375.893 981.342 376.537 980.975 377.085C980.608 377.633 980.087 378.06 979.477 378.312C978.867 378.564 978.196 378.63 977.549 378.501C976.901 378.373 976.307 378.055 975.84 377.589C975.373 377.123 975.056 376.529 974.927 375.883C974.798 375.236 974.864 374.566 975.117 373.958C975.37 373.349 975.798 372.828 976.347 372.462C976.896 372.096 977.541 371.901 978.201 371.901C979.086 371.901 979.935 372.252 980.561 372.877C981.186 373.502 981.538 374.35 981.538 375.234Z" fill="#375965"/>
<path d="M1000.52 375.234C1000.52 375.893 1000.33 376.537 999.962 377.085C999.595 377.632 999.074 378.059 998.464 378.312C997.854 378.564 997.183 378.63 996.536 378.501C995.889 378.372 995.294 378.055 994.828 377.589C994.361 377.123 994.043 376.529 993.914 375.883C993.786 375.236 993.852 374.566 994.105 373.958C994.357 373.349 994.785 372.828 995.334 372.462C995.883 372.096 996.528 371.901 997.188 371.901C998.073 371.901 998.922 372.252 999.548 372.877C1000.17 373.502 1000.52 374.35 1000.52 375.234Z" fill="#375965"/>
<path d="M1019.51 375.234C1019.51 375.893 1019.32 376.537 1018.95 377.085C1018.58 377.633 1018.06 378.061 1017.45 378.313C1016.84 378.565 1016.17 378.631 1015.52 378.502C1014.87 378.373 1014.28 378.056 1013.81 377.589C1013.35 377.123 1013.03 376.529 1012.9 375.882C1012.77 375.236 1012.84 374.566 1013.09 373.957C1013.34 373.348 1013.77 372.827 1014.32 372.462C1014.87 372.096 1015.52 371.901 1016.18 371.901C1016.61 371.901 1017.05 371.987 1017.45 372.155C1017.86 372.322 1018.23 372.568 1018.54 372.877C1018.85 373.187 1019.09 373.554 1019.26 373.959C1019.43 374.363 1019.51 374.796 1019.51 375.234Z" fill="#375965"/>
<path d="M1038.5 375.234C1038.5 375.893 1038.3 376.537 1037.94 377.085C1037.57 377.633 1037.05 378.06 1036.44 378.312C1035.83 378.564 1035.16 378.63 1034.51 378.501C1033.86 378.373 1033.27 378.055 1032.8 377.589C1032.33 377.123 1032.02 376.529 1031.89 375.883C1031.76 375.236 1031.83 374.566 1032.08 373.957C1032.33 373.348 1032.76 372.828 1033.31 372.462C1033.86 372.096 1034.5 371.901 1035.16 371.901C1035.6 371.901 1036.04 371.987 1036.44 372.155C1036.85 372.322 1037.21 372.568 1037.52 372.877C1037.83 373.187 1038.08 373.554 1038.25 373.958C1038.41 374.363 1038.5 374.796 1038.5 375.234Z" fill="#375965"/>
<path d="M1057.49 375.234C1057.49 375.893 1057.29 376.537 1056.93 377.085C1056.56 377.633 1056.04 378.06 1055.43 378.312C1054.82 378.564 1054.15 378.63 1053.5 378.502C1052.85 378.373 1052.26 378.056 1051.79 377.59C1051.32 377.124 1051.01 376.53 1050.88 375.884C1050.75 375.237 1050.82 374.567 1051.07 373.958C1051.32 373.35 1051.75 372.829 1052.3 372.463C1052.85 372.097 1053.49 371.901 1054.15 371.901C1055.04 371.901 1055.89 372.252 1056.51 372.877C1057.14 373.502 1057.49 374.35 1057.49 375.234Z" fill="#375965"/>
<path d="M1076.48 375.234C1076.48 375.893 1076.28 376.537 1075.91 377.086C1075.55 377.634 1075.02 378.061 1074.41 378.313C1073.8 378.565 1073.13 378.631 1072.49 378.503C1071.84 378.374 1071.24 378.056 1070.78 377.59C1070.31 377.124 1069.99 376.53 1069.86 375.883C1069.73 375.236 1069.8 374.566 1070.05 373.957C1070.31 373.348 1070.73 372.828 1071.28 372.462C1071.83 372.096 1072.48 371.901 1073.14 371.901C1074.02 371.902 1074.87 372.253 1075.5 372.878C1076.12 373.503 1076.47 374.35 1076.48 375.234Z" fill="#375965"/>
<path d="M981.538 395.968C981.538 396.628 981.342 397.272 980.976 397.82C980.609 398.368 980.088 398.795 979.478 399.047C978.868 399.3 978.197 399.366 977.549 399.237C976.902 399.108 976.307 398.791 975.84 398.325C975.373 397.859 975.056 397.265 974.927 396.619C974.798 395.972 974.864 395.302 975.117 394.693C975.37 394.084 975.798 393.564 976.347 393.198C976.895 392.832 977.541 392.636 978.201 392.637C978.639 392.636 979.073 392.722 979.478 392.89C979.883 393.057 980.251 393.303 980.561 393.612C980.871 393.922 981.117 394.289 981.284 394.693C981.452 395.098 981.538 395.531 981.538 395.968Z" fill="#375965"/>
<path d="M1000.52 395.968C1000.52 396.627 1000.33 397.272 999.962 397.82C999.596 398.368 999.075 398.795 998.465 399.047C997.855 399.299 997.184 399.365 996.536 399.236C995.889 399.108 995.294 398.79 994.828 398.324C994.361 397.858 994.043 397.265 993.914 396.618C993.786 395.972 993.852 395.302 994.104 394.693C994.357 394.084 994.785 393.564 995.334 393.198C995.883 392.832 996.528 392.636 997.188 392.637C997.626 392.636 998.06 392.722 998.465 392.89C998.87 393.057 999.238 393.303 999.548 393.612C999.858 393.922 1000.1 394.289 1000.27 394.693C1000.44 395.098 1000.53 395.531 1000.52 395.968Z" fill="#375965"/>
<path d="M1019.51 395.968C1019.51 396.628 1019.32 397.272 1018.95 397.82C1018.58 398.369 1018.06 398.796 1017.45 399.048C1016.84 399.3 1016.17 399.366 1015.52 399.238C1014.87 399.109 1014.28 398.791 1013.81 398.325C1013.35 397.859 1013.03 397.265 1012.9 396.618C1012.77 395.972 1012.84 395.301 1013.09 394.692C1013.34 394.083 1013.77 393.563 1014.32 393.197C1014.87 392.831 1015.52 392.636 1016.18 392.637C1016.61 392.636 1017.05 392.723 1017.45 392.89C1017.86 393.057 1018.23 393.303 1018.54 393.612C1018.85 393.922 1019.09 394.289 1019.26 394.693C1019.43 395.098 1019.51 395.531 1019.51 395.968Z" fill="#375965"/>
<path d="M1038.5 395.968C1038.5 396.628 1038.3 397.272 1037.94 397.82C1037.57 398.368 1037.05 398.795 1036.44 399.047C1035.83 399.3 1035.16 399.366 1034.51 399.237C1033.86 399.108 1033.27 398.791 1032.8 398.325C1032.33 397.859 1032.02 397.265 1031.89 396.618C1031.76 395.972 1031.83 395.302 1032.08 394.693C1032.33 394.084 1032.76 393.564 1033.31 393.198C1033.86 392.832 1034.5 392.636 1035.16 392.637C1035.6 392.636 1036.04 392.722 1036.44 392.89C1036.85 393.057 1037.21 393.302 1037.52 393.612C1037.83 393.921 1038.08 394.289 1038.25 394.693C1038.41 395.098 1038.5 395.531 1038.5 395.968Z" fill="#375965"/>
<path d="M1057.49 395.968C1057.49 396.628 1057.29 397.272 1056.93 397.82C1056.56 398.368 1056.04 398.795 1055.43 399.047C1054.82 399.3 1054.15 399.366 1053.5 399.237C1052.85 399.109 1052.26 398.791 1051.79 398.325C1051.33 397.86 1051.01 397.266 1050.88 396.619C1050.75 395.973 1050.82 395.303 1051.07 394.694C1051.32 394.085 1051.75 393.565 1052.3 393.198C1052.85 392.832 1053.49 392.637 1054.15 392.637C1054.59 392.636 1055.02 392.722 1055.43 392.89C1055.83 393.057 1056.2 393.302 1056.51 393.612C1056.82 393.921 1057.07 394.289 1057.24 394.693C1057.4 395.097 1057.49 395.531 1057.49 395.968Z" fill="#375965"/>
<path d="M1076.48 395.968C1076.48 396.628 1076.28 397.272 1075.91 397.821C1075.55 398.369 1075.02 398.796 1074.41 399.049C1073.8 399.301 1073.13 399.367 1072.49 399.238C1071.84 399.11 1071.24 398.792 1070.78 398.326C1070.31 397.86 1069.99 397.266 1069.86 396.619C1069.73 395.972 1069.8 395.302 1070.05 394.693C1070.31 394.084 1070.73 393.563 1071.28 393.197C1071.83 392.831 1072.48 392.636 1073.14 392.637C1074.02 392.637 1074.87 392.988 1075.5 393.613C1076.12 394.238 1076.48 395.085 1076.48 395.968Z" fill="#375965"/>
<path d="M695.835 843.497C695.835 843.497 670.445 716.296 693.567 724.896C716.691 733.498 719.864 831.729 709.436 845.761" fill="#375965"/>
<path d="M695.835 843.497C695.835 843.497 670.445 716.296 693.567 724.896C716.691 733.498 719.864 831.729 709.436 845.761" stroke="#172A32" stroke-width="1.19242" stroke-miterlimit="10"/>
<path d="M693.372 848.18C693.372 848.18 688.852 796.24 663.971 798.947C639.09 801.661 675.281 844.114 681.613 848.18" fill="#4D7C87"/>
<path d="M693.372 848.18C693.372 848.18 688.852 796.24 663.971 798.947C639.09 801.661 675.281 844.114 681.613 848.18" stroke="#172A32" stroke-width="1.19242" stroke-linecap="round" stroke-linejoin="round"/>
<path d="M664.421 777.721C664.421 777.721 657.637 798.045 675.731 794.434C693.828 790.819 688.568 790.139 688.568 790.139" fill="#4D7C87"/>
<path d="M664.421 777.721C664.421 777.721 657.637 798.045 675.731 794.434C693.828 790.819 688.568 790.139 688.568 790.139" stroke="#172A32" stroke-width="1.19242" stroke-miterlimit="10"/>
<path d="M698.803 847.726C698.803 847.726 692.92 770.042 684.327 766.881C675.731 763.721 661.257 770.495 664.421 777.721C667.59 784.947 688.852 848.18 688.852 848.18" fill="#DCE8F6"/>
<path d="M698.803 847.726C698.803 847.726 692.92 770.042 684.327 766.881C675.731 763.721 661.257 770.495 664.421 777.721C667.59 784.947 688.852 848.18 688.852 848.18" stroke="#172A32" stroke-width="1.19242" stroke-linecap="round" stroke-linejoin="round"/>
<path d="M750.24 762.469C750.24 762.469 756.134 786.914 744.801 795.062C733.466 803.208 724.853 788.272 724.853 788.272L723.039 761.564" fill="#4D7C87"/>
<path d="M750.24 762.469C750.24 762.469 756.134 786.914 744.801 795.062C733.466 803.208 724.853 788.272 724.853 788.272L723.039 761.564" stroke="#172A32" stroke-width="1.19242" stroke-miterlimit="10"/>
<path d="M703.541 846.212C703.541 846.212 709.891 743.004 732.106 749.34C754.321 755.68 750.24 767.901 750.24 767.901C750.24 767.901 744.801 762.923 741.627 769.258C738.453 775.598 722.13 848.025 722.13 848.025" fill="#DCE8F6"/>
<path d="M703.541 846.212C703.541 846.212 709.891 743.004 732.106 749.34C754.321 755.68 750.24 767.901 750.24 767.901C750.24 767.901 744.801 762.923 741.627 769.258C738.453 775.598 722.13 848.025 722.13 848.025" stroke="#172A32" stroke-width="1.19242" stroke-linecap="round" stroke-linejoin="round"/>
<path d="M713.545 846.414C713.545 846.414 722.621 795.072 747.167 799.956C771.712 804.838 731.927 843.952 725.259 847.447" fill="#4D7C87"/>
<path d="M713.545 846.414C713.545 846.414 722.621 795.072 747.167 799.956C771.712 804.838 731.927 843.952 725.259 847.447" stroke="#172A32" stroke-width="1.19242" stroke-miterlimit="10"/>
<path d="M693.114 731.234C693.114 731.234 705.027 805.448 700.945 846.189" stroke="#172A32" stroke-width="0.794946" stroke-linecap="round" stroke-linejoin="round"/>
<path d="M675.886 771.071C675.886 771.071 691.299 824.937 692.661 843.497" stroke="#172A32" stroke-width="0.794946" stroke-linecap="round" stroke-linejoin="round"/>
<path d="M663.644 805.926C663.644 805.926 681.777 833.087 684.499 844.855" stroke="#172A32" stroke-width="0.794946" stroke-linecap="round" stroke-linejoin="round"/>
<path d="M733.012 756.585C733.012 756.585 714.422 812.261 709.436 842.593" stroke="#172A32" stroke-width="0.794946" stroke-linecap="round" stroke-linejoin="round"/>
<path d="M718.268 845.885L717.831 845.64C728.148 827.276 742.644 808.229 742.788 808.038L743.185 808.341C743.04 808.53 728.568 827.554 718.268 845.885Z" stroke="#172A32" stroke-width="0.794946" stroke-linecap="round" stroke-linejoin="round"/>
<path d="M742.989 843.955H668.027V860.7H742.989V843.955Z" fill="#375965" stroke="#172A32" stroke-width="1.19242" stroke-miterlimit="10"/>
<path d="M1335.84 600.584V590.682H1327.9C1327.25 587.431 1325.97 584.339 1324.12 581.586L1329.73 575.981L1322.72 568.977L1317.11 574.582C1314.35 572.738 1311.25 571.457 1308 570.812V562.889H1298.08V570.812C1294.82 571.457 1291.73 572.738 1288.97 574.582L1283.35 568.977L1276.34 575.981L1281.95 581.586C1280.11 584.34 1278.83 587.431 1278.18 590.682H1270.24V600.584H1278.18C1278.83 603.834 1280.11 606.925 1281.95 609.68L1276.34 615.285L1283.35 622.288L1288.97 616.683C1291.73 618.528 1294.82 619.81 1298.08 620.454V628.377H1308V620.454C1311.25 619.809 1314.35 618.527 1317.11 616.683L1322.72 622.288L1329.73 615.285L1324.12 609.68C1325.97 606.926 1327.25 603.835 1327.9 600.584H1335.84ZM1303.04 609.667C1300.26 609.667 1297.54 608.844 1295.23 607.303C1292.92 605.761 1291.12 603.569 1290.05 601.005C1288.99 598.441 1288.71 595.619 1289.25 592.896C1289.79 590.174 1291.13 587.673 1293.1 585.71C1295.06 583.747 1297.57 582.411 1300.29 581.869C1303.02 581.327 1305.85 581.605 1308.42 582.667C1310.98 583.729 1313.18 585.528 1314.72 587.836C1316.27 590.144 1317.09 592.857 1317.09 595.633C1317.09 599.355 1315.61 602.924 1312.98 605.555C1310.34 608.187 1306.77 609.666 1303.04 609.667Z" fill="#4D7C87"/>
<path d="M1016.96 340.171V333.227H1011.39C1010.94 330.948 1010.04 328.78 1008.74 326.849L1012.68 322.919L1007.76 318.008L1003.82 321.938C1001.89 320.645 999.719 319.746 997.435 319.295V313.739H990.482V319.295C988.198 319.747 986.026 320.645 984.092 321.938L980.156 318.008L975.238 322.919L979.175 326.849C977.88 328.78 976.98 330.948 976.527 333.227H970.962V340.171H976.527C976.98 342.451 977.88 344.619 979.175 346.549L975.238 350.479L980.156 355.39L984.092 351.46C986.026 352.753 988.198 353.652 990.482 354.104V359.659H997.435V354.104C999.718 353.651 1001.89 352.753 1003.82 351.46L1007.76 355.39L1012.68 350.479L1008.74 346.549C1010.04 344.618 1010.94 342.451 1011.39 340.171H1016.96ZM993.959 346.54C992.01 346.54 990.104 345.963 988.483 344.882C986.862 343.801 985.599 342.264 984.853 340.466C984.106 338.668 983.911 336.689 984.291 334.78C984.671 332.871 985.61 331.118 986.988 329.741C988.367 328.365 990.123 327.428 992.035 327.048C993.947 326.668 995.929 326.863 997.73 327.608C999.531 328.352 1001.07 329.613 1002.15 331.232C1003.24 332.85 1003.81 334.753 1003.81 336.699C1003.81 339.309 1002.78 341.811 1000.93 343.657C999.08 345.502 996.573 346.539 993.959 346.54Z" fill="#375965"/>
<path d="M1019.09 792.412C1019.09 794.733 1018.64 797.031 1017.75 799.175C1016.86 801.319 1015.55 803.267 1013.91 804.908C1012.27 806.549 1010.31 807.851 1008.17 808.738C1006.02 809.626 1003.72 810.083 1001.39 810.082H873.96C871.636 810.082 869.334 809.626 867.187 808.738C865.039 807.85 863.088 806.549 861.445 804.908C859.801 803.267 858.498 801.319 857.609 799.175C856.72 797.031 856.263 794.733 856.264 792.412C856.263 790.092 856.72 787.793 857.609 785.649C858.498 783.505 859.801 781.556 861.444 779.915C863.088 778.274 865.039 776.972 867.186 776.084C869.334 775.196 871.635 774.739 873.96 774.74H1001.39C1003.72 774.739 1006.02 775.196 1008.17 776.084C1010.32 776.972 1012.27 778.274 1013.91 779.915C1015.55 781.556 1016.86 783.504 1017.75 785.649C1018.64 787.793 1019.09 790.091 1019.09 792.412Z" fill="white" stroke="#172A32" stroke-width="1.19242" stroke-linecap="round" stroke-linejoin="round"/>
<path d="M1019.09 690.626C1019.09 692.947 1018.64 695.245 1017.75 697.389C1016.86 699.533 1015.55 701.482 1013.91 703.123C1012.27 704.764 1010.32 706.065 1008.17 706.953C1006.02 707.841 1003.72 708.297 1001.39 708.297H873.96C871.635 708.297 869.334 707.841 867.187 706.953C865.039 706.065 863.088 704.763 861.445 703.122C859.801 701.481 858.498 699.533 857.609 697.389C856.72 695.245 856.263 692.946 856.264 690.626C856.263 688.305 856.72 686.007 857.609 683.863C858.498 681.719 859.801 679.771 861.445 678.13C863.088 676.489 865.039 675.188 867.187 674.3C869.334 673.413 871.636 672.956 873.96 672.957H1001.39C1003.72 672.956 1006.02 673.412 1008.17 674.3C1010.32 675.187 1012.27 676.489 1013.91 678.13C1015.55 679.771 1016.86 681.719 1017.75 683.863C1018.64 686.007 1019.09 688.305 1019.09 690.626Z" fill="white" stroke="#172A32" stroke-width="1.19242" stroke-linecap="round" stroke-linejoin="round"/>
<path d="M942.05 696.054C942.051 697.168 941.831 698.272 941.404 699.301C940.978 700.331 940.352 701.266 939.563 702.054C938.774 702.842 937.837 703.467 936.806 703.894C935.775 704.32 934.669 704.54 933.553 704.539H872.373C871.257 704.54 870.152 704.32 869.121 703.894C868.09 703.468 867.153 702.843 866.364 702.055C865.575 701.267 864.949 700.331 864.522 699.301C864.096 698.272 863.876 697.168 863.877 696.054C863.877 694.94 864.096 693.837 864.523 692.807C864.95 691.778 865.576 690.842 866.365 690.055C867.154 689.267 868.09 688.642 869.121 688.216C870.153 687.79 871.257 687.571 872.373 687.571H933.553C934.669 687.571 935.774 687.79 936.805 688.216C937.836 688.642 938.773 689.267 939.562 690.055C940.351 690.843 940.977 691.778 941.404 692.807C941.831 693.837 942.051 694.94 942.05 696.054Z" fill="#4D7C87"/>
<path d="M944.977 796.7C944.978 797.814 944.758 798.918 944.331 799.947C943.905 800.977 943.279 801.912 942.49 802.7C941.701 803.488 940.764 804.113 939.733 804.54C938.702 804.966 937.596 805.185 936.48 805.185H875.3C874.184 805.185 873.079 804.966 872.048 804.54C871.016 804.113 870.08 803.489 869.291 802.701C868.501 801.913 867.876 800.977 867.449 799.948C867.022 798.918 866.803 797.814 866.804 796.7C866.803 795.586 867.022 794.483 867.449 793.453C867.876 792.424 868.502 791.489 869.291 790.701C870.08 789.913 871.017 789.288 872.048 788.862C873.079 788.436 874.184 788.217 875.3 788.217H936.48C937.596 788.217 938.701 788.436 939.732 788.862C940.763 789.288 941.7 789.913 942.489 790.701C943.278 791.489 943.904 792.424 944.331 793.453C944.758 794.483 944.978 795.586 944.977 796.7Z" fill="#4D7C87"/>
<path d="M1383.24 731.182C1383.24 731.182 1559.01 744.084 1651.66 687.726" stroke="#172A32" stroke-width="1.98736" stroke-linecap="round" stroke-linejoin="round"/>
<path d="M1287.96 806.629L1298 827.926L1277.82 833.669L1268.51 812.057" fill="white"/>
<path d="M1287.96 806.629L1298 827.926L1277.82 833.669L1268.51 812.057" stroke="#172A32" stroke-width="1.19242" stroke-linecap="round" stroke-linejoin="round"/>
<path d="M1161.85 820.097L1167.5 842.542L1147.63 847.659L1146.79 821.871" fill="white"/>
<path d="M1161.85 820.097L1167.5 842.542L1147.63 847.659L1146.79 821.871" stroke="#172A32" stroke-width="1.19242" stroke-linecap="round" stroke-linejoin="round"/>
<path d="M1182.63 553.287C1182.63 553.287 1209.75 569.59 1217.39 592.47C1225.03 615.35 1233.05 715.643 1245.65 732.376C1258.26 749.108 1299.36 803.81 1299.36 803.81L1267.88 821.872C1267.88 821.872 1220.83 757.686 1209.75 739.096C1198.67 720.507 1180.34 636.611 1180.34 636.611C1180.34 636.611 1156.66 701.524 1155.52 728.218C1154.37 754.913 1173.46 826.882 1173.46 826.882L1141.77 827.821C1141.77 827.821 1121.9 760.156 1119.99 725.167C1118.08 690.181 1142.53 587.222 1142.53 587.222" fill="#13232C"/>
<path d="M1080.22 611.899C1085.85 594.195 1088.57 573.538 1083.52 551.952C1069.2 490.747 1051.44 519.919 1051.44 536.508C1051.44 536.508 1057.32 571.151 1054.16 606.013C1058.87 609.379 1066.99 612.769 1080.22 611.899Z" fill="#4D7C87" stroke="#172A32" stroke-width="1.19242" stroke-linecap="round" stroke-linejoin="round"/>
<path d="M1054.16 606.013C1052.19 627.638 1046.75 649.347 1034.25 662.923L1049.71 666.927C1049.71 666.927 1069.88 644.392 1080.22 611.899C1066.99 612.769 1058.87 609.379 1054.16 606.013Z" fill="white" stroke="#172A32" stroke-width="1.19242" stroke-linecap="round" stroke-linejoin="round"/>
<path d="M1048 535.936C1048 535.936 1053.72 502.757 1088.67 507.334C1123.62 511.911 1182.63 553.097 1182.63 553.097C1182.63 553.097 1162.01 595.426 1144.82 595.998C1127.63 596.569 1048 562.82 1048 538.224" fill="#13232C"/>
<path d="M1036.54 664.352L1029.95 676.08L1016.2 687.521L1046.85 689.522L1043.98 680.369L1047.42 666.642" fill="#4D7C87"/>
<path d="M1036.54 664.352L1029.95 676.08L1016.2 687.521L1046.85 689.522L1043.98 680.369L1047.42 666.642" stroke="#172A32" stroke-width="1.19242" stroke-linecap="round" stroke-linejoin="round"/>
<path d="M1087.24 567.252C1087.24 567.252 1072.63 543.182 1078.36 529.07C1084.09 514.963 1089.56 514.032 1089.56 514.032C1089.56 514.032 1064.32 503.332 1059.17 524.78C1054.01 546.232 1072.49 560.818 1072.49 560.818L1087.24 567.252Z" fill="#4D7C87"/>
<path d="M1093.54 561.773C1093.54 561.773 1072.06 516.107 1107.39 519.538C1136.86 522.4 1153.43 553.044 1148.46 560.862C1143.5 568.68 1093.54 561.773 1093.54 561.773Z" fill="#4D7C87"/>
<path d="M1280.67 850.068L1282.47 846.877L1304.54 841.75L1307.44 847.547C1307.44 847.547 1243.89 865.418 1241.98 860.803C1241.37 859.328 1240.86 858.49 1240.86 857.698L1280.67 850.068Z" fill="#4D7C87" stroke="#172A32" stroke-width="1.19242" stroke-linecap="round" stroke-linejoin="round"/>
<path d="M1280.67 850.068L1240.86 857.698C1240.84 856.013 1237.74 854.7 1246.1 847.818C1250.63 844.084 1261.19 842.197 1264.5 838.738C1267.96 835.077 1270.68 830.782 1272.5 826.089C1272.5 826.089 1282.78 835.139 1287.26 832.382C1291.75 829.623 1297.11 826.917 1297.11 826.917L1304.54 841.75L1282.47 846.877L1280.67 850.068Z" fill="#4D7C87" stroke="#172A32" stroke-width="1.19242" stroke-linecap="round" stroke-linejoin="round"/>
<path d="M1148.34 858.364L1150.71 855.568L1173.35 854.685L1175.11 860.925C1175.11 860.925 1109.32 866.52 1108.32 861.626C1107.99 860.065 1107.66 859.144 1107.8 858.366L1148.34 858.364Z" fill="#4D7C87" stroke="#172A32" stroke-width="1.19242" stroke-linecap="round" stroke-linejoin="round"/>
<path d="M1148.34 858.364L1107.8 858.366C1108.1 856.708 1105.31 854.835 1114.81 849.649C1119.97 846.837 1130.69 846.969 1134.6 844.195C1138.69 841.252 1142.16 837.544 1144.84 833.277C1144.84 833.277 1153.23 844.099 1158.15 842.235C1163.08 840.37 1168.85 838.718 1168.85 838.718L1173.35 854.685L1150.71 855.568L1148.34 858.364Z" fill="#4D7C87" stroke="#172A32" stroke-width="1.19242" stroke-linecap="round" stroke-linejoin="round"/>
<path d="M1056.88 518.775L1070.77 519.347C1070.77 519.347 1075.67 525.43 1074.64 532.004C1073.63 538.367 1069.55 541.799 1065.18 542.299C1060.82 542.8 1058.02 533.218 1058.02 533.218" fill="white"/>
<path d="M1056.88 518.775L1070.77 519.347C1070.77 519.347 1075.67 525.43 1074.64 532.004C1073.63 538.367 1069.55 541.799 1065.18 542.299C1060.82 542.8 1058.02 533.218 1058.02 533.218" stroke="#172A32" stroke-width="1.19242" stroke-linecap="round" stroke-linejoin="round"/>
<path d="M1031.38 532.885C1031.38 532.885 1048.95 567.969 1056.59 558.054C1064.23 548.139 1061.75 519.919 1061.75 519.919C1061.75 519.919 1046.66 517.631 1031.38 532.885Z" fill="white" stroke="#172A32" stroke-width="1.19242" stroke-linecap="round" stroke-linejoin="round"/>
<path d="M1050.67 530.215L1056.59 533.362C1056.59 533.362 1055.25 530.025 1057.26 529.166C1059.27 528.309 1063.37 530.788 1062.32 534.983L1066.33 528.69L1061.65 516.774" fill="#13232C"/>
<path d="M1062.32 516.869C1062.32 516.869 1061.37 499.613 1044.46 501.901C1034.62 503.232 1014.58 520.302 1029.47 535.174C1029.47 535.174 1053.53 540.13 1062.32 516.869Z" fill="#13232C"/>
<path d="M1133.36 593.899C1133.36 593.899 1184.16 581.696 1181.68 553.287L1192.56 561.105C1192.56 561.105 1189.03 577.18 1177.69 586.023C1167.26 594.158 1153.07 598.552 1141.19 597.904L1133.36 593.899Z" fill="white" stroke="#172A32" stroke-width="1.19242" stroke-linecap="round" stroke-linejoin="round"/>
<path d="M1047.51 596.46L1044.5 611.617L1085.06 619.645L1088.07 604.488L1047.51 596.46Z" fill="#4D7C87" stroke="#172A32" stroke-width="1.19242" stroke-linecap="round" stroke-linejoin="round"/>
<path d="M988.191 611.335C980.616 611.277 973.094 612.606 965.999 615.254C965.901 615.253 965.804 615.241 965.706 615.241C961.373 615.241 957.222 617.93 953.385 622.843C949.952 626.05 947.686 629.762 946.952 633.758C936.966 655.302 930.323 693.536 930.323 737.122C930.323 804.433 946.166 859 965.706 859C967.543 859 982.1 859.829 988.191 859.829C1011.11 859.829 1029.7 848.524 1029.7 834.582V636.586C1029.7 622.641 1011.11 611.335 988.191 611.335Z" fill="white" stroke="#172A32" stroke-width="1.19242" stroke-linecap="round" stroke-linejoin="round"/>
<path d="M1048.27 737.121C1048.27 804.433 1032.43 859 1012.89 859C993.345 859 977.503 804.433 977.503 737.121C977.503 669.808 993.345 615.24 1012.89 615.24C1032.43 615.24 1048.27 669.808 1048.27 737.121Z" fill="#4D7C87" stroke="#172A32" stroke-width="1.19242" stroke-miterlimit="10"/>
<path d="M1206.47 735.975C1206.47 728.851 1209.31 722.019 1214.35 716.982C1219.4 711.945 1226.24 709.115 1233.38 709.115H1360.81C1367.94 709.115 1374.79 711.945 1379.83 716.982C1384.88 722.019 1387.71 728.851 1387.71 735.975C1387.71 743.099 1384.88 749.931 1379.83 754.968C1374.79 760.005 1367.94 762.835 1360.81 762.835H1233.38C1226.24 762.835 1219.4 760.005 1214.35 754.968C1209.31 749.931 1206.47 743.099 1206.47 735.975Z" fill="white" stroke="#172A32" stroke-width="1.19242" stroke-linecap="round" stroke-linejoin="round"/>
<path d="M1371.45 715.41C1371.02 721.249 1368.39 726.709 1364.1 730.695C1359.8 734.681 1354.16 736.897 1348.29 736.9H1238.2C1233.56 736.906 1229.01 735.514 1225.17 732.904C1225.12 733.471 1225.08 734.039 1225.08 734.619C1225.08 740.774 1227.53 746.676 1231.89 751.028C1236.25 755.38 1242.16 757.825 1248.32 757.824H1358.41C1363.39 757.825 1368.23 756.233 1372.23 753.282C1376.23 750.33 1379.17 746.176 1380.63 741.429C1382.09 736.682 1381.99 731.593 1380.34 726.909C1378.68 722.226 1375.57 718.195 1371.45 715.41Z" fill="#4D7C87"/>
<path d="M1149.83 726.079C1149.83 719.489 1151.13 712.962 1153.66 706.873C1156.18 700.783 1159.89 695.25 1164.55 690.59C1169.22 685.929 1174.76 682.232 1180.86 679.71C1186.96 677.188 1193.5 675.89 1200.1 675.89C1206.7 675.89 1213.24 677.187 1219.34 679.71C1225.44 682.232 1230.98 685.929 1235.65 690.589C1240.31 695.25 1244.02 700.783 1246.54 706.873C1249.07 712.962 1250.37 719.489 1250.36 726.079V745.868C1250.37 752.459 1249.07 758.986 1246.54 765.076C1244.02 771.165 1240.31 776.698 1235.65 781.359C1230.98 786.02 1225.44 789.717 1219.34 792.239C1213.24 794.761 1206.7 796.059 1200.1 796.058C1193.5 796.059 1186.96 794.761 1180.86 792.239C1174.76 789.717 1169.22 786.02 1164.55 781.359C1159.89 776.698 1156.18 771.165 1153.66 765.076C1151.13 758.986 1149.83 752.459 1149.83 745.868V726.079Z" fill="white" stroke="#172A32" stroke-width="1.19242" stroke-linecap="round" stroke-linejoin="round"/>
<path d="M1221.01 765.153C1215.06 765.154 1209.15 763.983 1203.65 761.706C1198.14 759.43 1193.14 756.092 1188.93 751.885C1184.71 747.678 1181.37 742.683 1179.09 737.187C1176.81 731.69 1175.64 725.798 1175.64 719.848V701.985C1175.63 695.953 1176.84 689.98 1179.18 684.42C1172.25 688.386 1166.5 694.107 1162.5 701.004C1158.5 707.902 1156.4 715.731 1156.4 723.702V741.565C1156.4 752.026 1160.03 762.164 1166.66 770.259C1173.3 778.353 1182.53 783.906 1192.81 785.975C1203.08 788.044 1213.75 786.501 1223.01 781.609C1232.27 776.716 1239.55 768.775 1243.61 759.133C1236.74 763.086 1228.95 765.163 1221.01 765.153Z" fill="#4D7C87"/>
<path d="M1142.76 641.256H1042.22C1034.22 641.251 1026.31 642.945 1019.01 646.226C999.977 687.19 991.193 778.648 1019.02 825.723C1026.31 829.003 1034.22 830.696 1042.22 830.69H1142.76C1150.19 830.691 1157.56 829.229 1164.43 826.388C1171.3 823.546 1177.55 819.381 1182.8 814.131C1188.06 808.88 1192.24 802.646 1195.08 795.786C1197.93 788.925 1199.39 781.572 1199.39 774.146V697.802C1199.39 690.376 1197.93 683.023 1195.08 676.162C1192.24 669.302 1188.06 663.068 1182.8 657.817C1177.55 652.566 1171.3 648.401 1164.43 645.56C1157.56 642.718 1150.19 641.256 1142.76 641.256Z" fill="white" stroke="#172A32" stroke-width="1.19242" stroke-linecap="round" stroke-linejoin="round"/>
<path d="M1178.61 795.197H1088.27C1081.08 795.203 1073.97 793.682 1067.41 790.735C1046.65 755.607 1048.58 693.006 1059.62 651.691H1045.6C1038.41 651.686 1031.3 653.208 1024.75 656.156C1007.64 692.969 999.745 775.159 1024.75 817.465C1031.31 820.41 1038.41 821.931 1045.6 821.926H1135.95C1145.15 821.929 1154.18 819.44 1162.08 814.723C1169.98 810.007 1176.45 803.24 1180.8 795.143C1180.07 795.174 1179.35 795.197 1178.61 795.197Z" fill="#4D7C87"/>
<path d="M1121.13 605.587C1123.35 592.411 1124.22 562.966 1119.94 548.521C1108.18 508.896 1090.78 533.395 1090.78 548.032C1090.78 548.032 1092.72 575.864 1091.43 606.721C1101.34 607.515 1111.31 607.134 1121.13 605.587Z" fill="#4D7C87" stroke="#172A32" stroke-width="1.19242" stroke-linecap="round" stroke-linejoin="round"/>
<path d="M1091.43 606.721C1090.38 631.671 1087.15 661.313 1072.55 677.168L1083.63 680.3C1083.63 680.3 1114.09 647.39 1121.13 605.587C1111.31 607.134 1101.34 607.515 1091.43 606.721Z" fill="white" stroke="#172A32" stroke-width="1.19242" stroke-linecap="round" stroke-linejoin="round"/>
<path d="M1126.29 603.877H1084.47V621.417H1126.29V603.877Z" fill="#4D7C87" stroke="#172A32" stroke-width="1.19242" stroke-linecap="round" stroke-linejoin="round"/>
<path d="M1085.84 676.731L1073.82 672.065C1073.19 672.167 1072.58 672.349 1072 672.607C1071.1 673.017 1071.42 675.936 1071.42 675.936C1071.42 675.936 1064.18 681.035 1060.76 686.517C1057.33 692.001 1050.28 695.886 1053.07 697.113C1055.87 698.343 1058.08 693.327 1059.23 694.499C1059.81 695.085 1058.14 699.819 1055.49 704.022C1052.84 708.224 1049.22 711.89 1051.35 712.331C1055.63 713.217 1063.72 699.589 1063.72 699.589C1063.72 699.589 1062.1 704.385 1060.08 709.266C1057.91 714.507 1055.41 719.894 1057.91 720.875C1060.07 721.722 1062.01 716.882 1064.56 712.313C1066.27 709.32 1068.15 706.428 1070.19 703.65C1070.19 703.65 1064.75 719.945 1067.16 719.011C1069.57 718.078 1074.09 703.465 1075.1 703.883C1076.11 704.301 1073.32 714.68 1075.08 714.458C1076.84 714.236 1082.27 696.661 1082.27 696.661C1082.27 696.661 1086.89 686.937 1084.95 680.758C1084.95 680.758 1087.9 678.415 1085.84 676.731Z" fill="#13232C"/>
<path d="M1218.38 578.876C1218.83 579.569 1219.13 580.342 1219.28 581.152C1219.42 581.962 1219.4 582.792 1219.23 583.596C1219.05 584.399 1218.72 585.16 1218.25 585.835C1217.78 586.51 1217.18 587.086 1216.48 587.529L1202.22 596.649C1201.52 597.092 1200.75 597.395 1199.94 597.54C1199.13 597.684 1198.29 597.668 1197.49 597.492C1196.68 597.316 1195.92 596.983 1195.25 596.512C1194.57 596.042 1193.99 595.443 1193.55 594.75L1174.94 565.735C1174.5 565.042 1174.2 564.268 1174.05 563.459C1173.91 562.649 1173.92 561.819 1174.1 561.015C1174.27 560.211 1174.61 559.451 1175.08 558.776C1175.55 558.101 1176.15 557.525 1176.84 557.082L1191.11 547.962C1191.8 547.518 1192.58 547.216 1193.39 547.071C1194.2 546.926 1195.03 546.942 1195.84 547.119C1196.64 547.295 1197.4 547.628 1198.08 548.098C1198.76 548.569 1199.33 549.167 1199.78 549.86L1218.38 578.876Z" fill="#4D7C87" stroke="#172A32" stroke-width="1.19242" stroke-linecap="round" stroke-linejoin="round"/>
<path d="M1182.12 575.468C1182.12 575.468 1200.1 574.758 1207.7 561.345L1182.12 575.468Z" fill="#4D7C87"/>
<path d="M1182.12 575.468C1182.12 575.468 1200.1 574.758 1207.7 561.345" stroke="#172A32" stroke-width="1.19242" stroke-linecap="round" stroke-linejoin="round"/>
<path d="M1174.57 466.744C1174.57 469.346 1174.06 471.922 1173.06 474.326C1172.06 476.73 1170.6 478.914 1168.76 480.754C1166.91 482.593 1164.73 484.053 1162.32 485.048C1159.91 486.044 1157.33 486.556 1154.73 486.556H1088.58C1083.32 486.556 1078.27 484.469 1074.55 480.753C1070.83 477.038 1068.74 471.999 1068.74 466.744C1068.74 461.49 1070.83 456.45 1074.55 452.735C1078.27 449.019 1083.32 446.932 1088.58 446.932H1154.73C1157.33 446.932 1159.91 447.444 1162.32 448.44C1164.73 449.436 1166.91 450.895 1168.76 452.735C1170.6 454.574 1172.06 456.758 1173.06 459.162C1174.06 461.566 1174.57 464.142 1174.57 466.744Z" fill="#13232C"/>
<path d="M1092.25 466.744H1068.74V486.475H1092.25V466.744Z" fill="#13232C"/>
<path d="M425.531 431.644H329.323C313.383 431.644 300.461 446.346 300.461 464.481C300.461 482.616 313.383 497.319 329.323 497.319H425.531C426.39 497.319 427.239 497.268 428.079 497.184H454.393V464.481C454.393 446.346 441.471 431.644 425.531 431.644Z" fill="#375965"/>
<path d="M1105.48 466.091C1105.48 466.672 1105.31 467.24 1104.99 467.722C1104.66 468.205 1104.21 468.581 1103.67 468.803C1103.13 469.026 1102.54 469.084 1101.97 468.97C1101.4 468.857 1100.88 468.577 1100.46 468.167C1100.05 467.756 1099.77 467.233 1099.66 466.664C1099.55 466.094 1099.6 465.504 1099.83 464.968C1100.05 464.432 1100.43 463.973 1100.91 463.651C1101.39 463.328 1101.96 463.156 1102.54 463.156C1102.93 463.156 1103.31 463.232 1103.67 463.379C1104.03 463.527 1104.35 463.743 1104.62 464.016C1104.9 464.288 1105.11 464.612 1105.26 464.968C1105.41 465.324 1105.48 465.706 1105.48 466.091Z" fill="white"/>
<path d="M1124.59 466.091C1124.59 466.672 1124.42 467.24 1124.1 467.722C1123.77 468.205 1123.31 468.581 1122.78 468.803C1122.24 469.025 1121.65 469.084 1121.08 468.97C1120.51 468.857 1119.98 468.577 1119.57 468.167C1119.16 467.756 1118.88 467.233 1118.77 466.664C1118.65 466.094 1118.71 465.504 1118.94 464.968C1119.16 464.431 1119.54 463.973 1120.02 463.651C1120.5 463.328 1121.07 463.156 1121.65 463.156C1122.04 463.156 1122.42 463.232 1122.78 463.379C1123.13 463.527 1123.46 463.743 1123.73 464.016C1124 464.288 1124.22 464.612 1124.37 464.968C1124.52 465.324 1124.59 465.706 1124.59 466.091Z" fill="white"/>
<path d="M1143.7 466.091C1143.7 466.672 1143.53 467.239 1143.2 467.722C1142.88 468.205 1142.42 468.581 1141.89 468.803C1141.35 469.025 1140.76 469.083 1140.19 468.97C1139.62 468.856 1139.09 468.577 1138.68 468.166C1138.27 467.756 1137.99 467.233 1137.88 466.663C1137.76 466.094 1137.82 465.504 1138.05 464.967C1138.27 464.431 1138.64 463.973 1139.13 463.65C1139.61 463.328 1140.18 463.156 1140.76 463.156C1141.15 463.156 1141.53 463.232 1141.89 463.38C1142.24 463.527 1142.57 463.743 1142.84 464.016C1143.11 464.289 1143.33 464.612 1143.48 464.968C1143.62 465.324 1143.7 465.706 1143.7 466.091Z" fill="white"/>
<path d="M351.195 470.578H347.764L346.336 479.302H342.095L343.523 470.578H338.792V466.684H344.162L345.1 461.066H340.389V457.173H345.739L347.21 448.321H351.43L349.98 457.173H353.412L354.882 448.321H359.123L357.653 457.173H362.576V461.066H357.013L356.076 466.684H360.956V470.578H355.436L354.008 479.302H349.767L351.195 470.578ZM348.403 466.684H351.834L352.772 461.066H349.341L348.403 466.684Z" fill="white"/>
<path d="M380.594 470.578H377.162L375.734 479.302H371.493L372.921 470.578H368.19V466.684H373.56L374.498 461.066H369.788V457.173H375.138L376.608 448.321H380.828L379.379 457.173H382.81L384.281 448.321H388.522L387.051 457.173H391.974V461.066H386.412L385.474 466.684H390.355V470.578H384.835L383.407 479.302H379.166L380.594 470.578ZM377.801 466.684H381.233L382.171 461.066H378.739L377.801 466.684Z" fill="white"/>
<path d="M409.992 470.578H406.561L405.133 479.302H400.891L402.32 470.578H397.588V466.684H402.959L403.896 461.066H399.186V457.173H404.536L406.006 448.321H410.226L408.777 457.173H412.208L413.679 448.321H417.92L416.449 457.173H421.373V461.066H415.81L414.872 466.684H419.753V470.578H414.233L412.805 479.302H408.563L409.992 470.578ZM407.199 466.684H410.631L411.569 461.066H408.137L407.199 466.684Z" fill="white"/>
</g>
<defs>
<clipPath id="clip0_1_2846">
<rect width="1938" height="1393" fill="white" transform="translate(-105 -155)"/>
</clipPath>
</defs>
</svg>
