<?xml version="1.0" encoding="UTF-8"?>
<svg width="309px" height="617px" viewBox="0 0 309 617" version="1.1" xmlns="http://www.w3.org/2000/svg" xmlns:xlink="http://www.w3.org/1999/xlink">
    <!-- Generator: Sketch 62 (91390) - https://sketch.com -->
    <title>peep-standing-17</title>
    <desc>Created with Sketch.</desc>
    <g id="Introduction" stroke="none" stroke-width="1" fill="none" fill-rule="evenodd">
        <g id="variations-standing" transform="translate(-2062.000000, -908.000000)">
            <g id="a-person/standing" transform="translate(2029.000000, 854.000000)">
                <g id="pose/standing/pointing_finger-2" transform="translate(-28.736217, 150.264357)">
                    <path d="M101.56493,159.97384 L99.227084,159.741412 C98.0766853,140.603235 101.310578,121.800445 105.087372,103.306061 L107.43733,103.444524 C108.266405,114.102854 113.715362,124.198575 111.220061,135.167204 C108.834243,143.830485 103.779043,151.298015 101.56493,159.97384 Z M368.246999,63.5868519 L366.878348,63.8791624 C369.428034,59.0488188 367.05029,57.459454 364.165269,53.4660417 L363.85107,54.1914927 L362.741045,51.7654332 C362.520655,51.1493325 362.295515,50.6262504 361.68683,50.3959522 C361.092156,47.3774608 359.322148,44.6131732 356.964828,43.1116199 L356.51336,43.6188438 C355.579077,42.8022677 354.452902,42.4914954 353.380638,42.1132668 C355.682148,38.6389129 357.162656,34.1314127 358.71465,30.4061688 C359.978331,26.4937041 361.954005,22.6967435 362.325201,18.729367 C362.026439,14.9165482 358.422775,17.3932591 356.665116,19.295053 C351.296193,24.0030286 346.672275,31.4594337 343.207304,40.5146711 C337.257008,38.9667268 333.843573,40.6001157 332.190646,48.7296636 C330.669052,54.2523217 329.113734,59.9169931 328.908305,65.6427302 C328.109391,65.3686446 326.692292,64.3378652 325.926626,65.1461572 C312.702029,79.6147026 297.087101,90.7613217 281.985863,102.960496 C270.573785,94.5663297 264.635125,77.959065 258.358755,65.4921961 C247.409544,44.0938781 236.460095,12.7671779 208.296702,12.8774748 C204.564319,12.4883585 200.919094,12.0422003 197.395701,10.9584026 C196.031325,10.587748 194.344675,10.1413531 193.881571,9.31270584 C193.047033,6.64380372 192.888865,3.75596452 191.421656,1.30836636 C187.395498,-5.23560366 178.672512,-5.74992827 171.837092,-4.32908582 C160.231698,-2.17853202 160.52381,-3.43392905 159.685947,8.77092534 C159.434684,11.6682321 157.188746,12.0831474 154.791053,12.6831534 C152.06895,13.5413867 149.295786,14.2426954 146.497924,14.8076714 C146.788373,14.7260138 147.078585,14.6453029 147.369035,14.563172 C101.948237,15.2827057 71.7904088,67.9644099 65.8075759,105.235074 C58.8586361,143.365629 67.8464224,185.801551 82.0556506,217.82743 C81.4455403,229.490267 83.7337506,241.206123 85.182436,252.701384 C86.0917829,255.577389 89.2399423,255.857392 90.1400271,252.525998 C90.1400271,252.525998 91.2495776,248.141102 91.2495776,248.141102 L92.4372621,252.505643 C93.190341,255.206261 94.4005869,255.527211 95.4894758,255.545673 C96.8403155,255.545673 97.5808075,254.880104 97.625218,251.36859 L99.8626056,250.830833 C100.724692,252.473216 101.580841,253.925538 102.935481,254.935489 C105.659484,274.735922 107.369408,295.323817 113.98135,314.483297 C116.617958,321.593663 120.666914,328.049348 123.640519,335.025275 C109.620095,366.667008 107.2699,401.73055 103.903488,435.609701 C104.174226,435.630767 105.565676,435.752898 105.862775,435.778224 L105.094972,437.818717 C104.046456,438.262035 103.430171,439.196482 103.112648,440.230812 C102.405405,440.17235 99.4548363,440.194362 99.619179,440.870108 C99.9604512,444.850503 101.076651,447.690294 103.191732,449.762977 C103.220706,450.401327 103.259891,451.052457 103.309289,451.656724 C99.1133265,466.296158 96.0385513,481.902467 94.1702222,497.994933 C91.7950908,500.279926 91.2006548,507.796214 94.7430466,509.801204 C104.522385,516.534052 117.658874,519.731006 130.027321,518.51703 C143.412936,517.250745 159.377211,511.918148 152.97141,496.653382 C152.888526,496.179768 152.238517,496.157045 151.726015,496.260478 C150.591291,495.159639 149.361096,494.327205 148.030443,493.859508 C145.386473,487.257076 143.008492,480.334167 140.93426,473.422383 C139.923742,470.247914 138.878789,466.965278 138.96476,463.484296 C139.464913,454.935809 140.345048,451.402757 146.286321,444.669199 C149.964319,446.437264 156.973581,433.633587 158.579959,430.94575 C160.832625,425.644869 161.915419,427.187133 161.828339,435.572541 C163.234751,440.484779 163.790002,448.688884 167.30722,452.344305 C169.220434,465.071058 156.128831,470.901884 164.564692,485.01587 C161.709595,485.211848 161.443369,486.353161 161.493242,489.819705 C161.483742,492.30896 161.418908,494.921057 161.888424,497.247707 C162.457686,500.106197 165.096431,500.872832 169.057279,501.71568 C172.267186,502.42551 175.357873,503.236405 178.543318,504.002803 C181.764862,505.073347 185.15906,504.985535 186.483539,501.727988 C202.436651,507.133722 248.425761,506.515254 263.636482,499.35187 C267.836957,497.670907 270.799637,496.720838 266.942097,491.987773 C264.818466,478.480184 226.475803,493.704261 221.578534,478.888494 C220.879841,476.964924 211.657016,464.918157 209.156015,463.484296 C210.177457,462.015169 209.115308,450.192752 209.156015,449.762977 C209.807583,442.883904 221.529763,411.730323 222.832241,397.984241 C224.171444,374.624246 222.915362,354.93056 230.034819,331.190444 C239.986813,293.600723 259.320112,258.325582 259.581113,218.548384 C259.248865,211.954236 261.077296,204.933338 259.41962,198.462505 L261.478416,197.391962 C261.774802,197.733267 262.310341,197.723799 262.417211,197.259653 C263.767813,195.068388 262.253818,192.44067 261.943182,190.041356 C262.649951,189.285136 262.297042,188.595425 261.444217,188.182877 C252.298975,155.909895 237.002521,151.195292 241.213208,110.854301 C248.083776,125.406871 263.303047,140.138615 280.079298,137.972676 C296.979043,140.497908 336.401808,99.3427083 344.015718,86.0386715 C345.411206,86.1468382 345.428305,85.1468283 345.640621,84.2045705 C352.594785,85.0220934 359.103895,79.5657081 359.233564,72.8901391 C365.335854,76.6719516 371.857313,71.2709515 368.623895,64.6746733 C368.496838,64.31822 368.367881,63.9549028 368.246999,63.5868519 Z" id="ðŸŽ¨-Background" fill="#FFFFFF"></path>
                    <path d="M191.83503,-0.386160438 C191.870653,-0.525996354 192.065632,-0.485704649 192.075131,-0.352979034 C192.269635,2.34917229 192.917981,5.20016591 193.906175,7.84993801 C194.259796,7.90682042 194.599406,8.10590884 194.846633,8.4924722 C195.178892,9.01118557 196.76936,9.37361206 197.599134,9.61783297 L197.717642,9.65358432 C201.162426,10.7161003 204.758015,11.1453254 208.331043,11.5243045 C225.135556,12.4526727 231.25162,17.7142954 240.731484,31.0084248 C251.984682,45.9850884 258.298813,63.7596554 266.781934,80.2896828 C268.869466,84.3093728 271.12324,88.2342589 273.600254,92.0287894 L273.955213,92.5692421 C276.136777,95.8743215 278.557231,99.2014484 281.87676,101.430977 C290.055837,94.5800372 298.802133,88.4632093 306.892588,81.5059161 L307.649109,80.8511595 C313.719576,75.6087347 319.516692,70.0532197 325.033333,64.2322534 C325.684054,63.5449243 326.90475,63.3647967 327.807209,63.7677138 C328.159881,58.5281331 329.641103,53.3890447 331.006429,48.3265105 C332.44039,41.8056536 334.930704,37.3982151 342.443681,39.0120164 L342.636055,38.5317822 C345.639292,31.0924149 349.646507,23.8625796 355.648526,18.4249585 L356.04209,18.0708676 C357.347534,16.8866437 359.060659,15.1885844 360.894232,15.341825 C362.559033,15.4792908 363.414232,16.9845415 363.480492,18.5153892 C363.556686,20.3313798 362.764148,22.1805262 362.196494,23.8824877 L362.148414,24.0280055 C361.416709,26.263247 360.628244,28.4795278 359.794656,30.6787438 C358.991942,32.7952434 358.132231,34.890412 357.232383,36.9666199 C356.314962,38.7029553 355.640017,41.579072 353.969042,42.6287894 C353.10648,43.1412051 352.218032,42.452217 352.126124,41.5717247 C351.995742,40.4174859 352.660475,39.40332 353.149703,38.3981604 C353.600933,37.4738213 354.042901,36.544742 354.472519,35.6109225 C356.200254,31.8514695 357.750348,28.0140401 359.082188,24.0993455 L359.122088,23.9718449 C359.575467,22.5728912 361.080464,19.3196226 360.535623,18.1717247 C359.973011,18.1764649 358.814775,19.3638851 358.405344,19.7170301 C351.964869,25.0466746 347.77888,32.4110501 342.990144,39.1305214 C345.995098,39.9884977 349.257252,40.3909407 351.753265,42.405763 C356.887311,46.8812233 352.764495,55.7427912 345.882528,54.0929644 C347.803342,58.170485 349.455318,64.7577046 346.051145,68.4415515 C345.027803,69.399072 343.040017,69.0933291 342.728668,67.5672215 C342.396421,65.9460729 342.795165,64.5567201 343.160899,62.9858177 C343.823494,59.7868933 344.225327,56.5107037 343.773622,53.253949 L343.631601,53.1694591 C342.465226,52.4622149 341.73167,51.6681787 341.766836,50.206237 C341.615081,49.1489353 342.743155,47.724505 343.875742,48.5895916 C344.243851,48.8692634 344.692943,48.8905943 345.079813,49.1726363 C345.736427,49.7964689 346.552176,50.2870669 347.483013,50.279196 L347.573452,50.276866 C348.770399,50.2676226 349.653859,49.5471121 350.019593,48.4286618 C351.021798,45.3589079 347.552316,44.3281513 345.296166,43.7382334 L344.713405,43.5586027 C338.555005,41.6780708 336.322976,41.6474067 334.775386,48.8763737 L334.589906,49.4762551 C332.988124,54.6802103 331.51704,60.004767 328.788041,64.7513054 L329.229935,65.8050192 C332.064906,72.5337625 335.646746,80.1969881 343.227634,82.2544959 C343.498609,79.9901021 345.950687,79.9083336 347.725445,79.964979 C350.016268,79.8414968 352.315403,78.6803847 353.933656,77.0118341 C355.347193,75.5900109 356.057998,73.6086071 357.621628,72.3403665 C356.91391,70.7334385 358.512214,68.9606035 360.181764,69.8849426 C361.307464,70.5059088 361.986921,71.3923263 363.34536,71.572454 C364.549194,71.7338578 365.65827,71.314113 366.572604,70.5438304 C368.959372,68.5292452 367.824173,65.56899 368.408397,62.9310684 C367.639169,64.2604576 366.361476,65.2798377 364.993299,65.9837575 C355.858982,71.2024813 355.950891,60.9705214 360.998965,62.6513965 C366.482595,61.4051978 366.389975,59.4256901 364.340204,54.7779234 L364.284043,54.6116489 C363.942494,53.6270335 363.238978,51.9480632 363.917472,50.9172671 C363.955471,50.8648879 364.024343,50.8482972 364.074215,50.8959362 C364.701425,51.5119253 364.948414,52.545289 365.477778,53.2705397 L365.981239,53.8701956 C367.934968,56.2087488 370.058929,59.0028926 368.786005,62.1513054 C368.918999,62.1228642 369.064105,62.1797466 369.108991,62.3409134 C369.698202,64.4811139 370.868787,66.5833929 370.626548,68.8729098 C370.120221,73.890412 364.674589,76.6451796 360.16514,74.5540401 C359.298066,81.004268 352.929788,85.6468204 346.547498,85.3593273 C346.345632,86.2431376 345.690161,87.0210046 344.676081,87.101588 C335.283376,102.130631 298.361612,140.795025 280.254707,139.179564 C278.52341,139.964067 276.319508,139.570394 274.48609,139.333621 C260.423868,137.502007 248.671705,127.229756 242.116522,115.054314 C239.706718,154.935754 253.323885,154.451779 262.435878,187.491688 C263.347837,188.062882 263.879813,189.309792 263.172332,190.36425 C263.56324,192.363192 264.363817,194.41167 264.055556,196.462518 C263.903562,197.047933 263.597201,197.581205 263.319338,198.116848 C262.747701,199.209938 261.239881,199.078397 260.533588,198.228242 C261.731009,202.554861 261.220407,207.096921 260.913571,211.507914 C260.725954,214.098671 260.740204,216.653402 260.737829,219.246292 C260.380407,258.718179 241.075844,294.307841 231.151637,331.755189 C228.344275,342.252363 226.187871,352.948151 225.340034,363.791597 C224.439949,375.326875 225.067159,386.926383 223.983969,398.447203 C222.705089,412.065088 219.009517,425.288826 214.695997,438.224596 C214.990246,438.971178 214.660136,439.919218 213.971416,440.397978 C213.736539,441.095025 213.501187,441.787094 213.266073,442.481296 C213.648431,444.329974 213.743427,446.185763 213.665055,448.098197 C213.599983,450.839218 212.738609,453.558908 213.097455,456.296611 C213.376031,457.496119 214.3495,458.645854 213.731552,459.929974 L214.012902,460.109167 C215.650411,461.159864 217.215265,462.312246 218.291349,463.935444 C218.526463,464.290959 218.70458,465.02332 218.972943,465.274551 C219.253181,465.535262 219.775657,465.56631 220.120017,465.689318 C221.864139,466.219036 222.961103,467.79136 222.811009,469.616574 C226.89464,470.790011 225.48799,474.932235 229.702714,477.814751 C234.029771,480.945654 239.888872,481.289318 244.999406,482.102263 L253.708142,483.489008 L253.708142,483.489008 L254.235057,483.55283 C259.969177,484.259938 267.399634,485.639272 268.0981,492.532126 C269.170127,493.271597 269.536573,494.781588 269.845547,495.978252 C270.083749,496.922737 270.060237,497.898744 269.365106,498.645799 C268.546005,499.526292 267.089008,499.887495 266.012706,500.356538 C264.605344,500.911852 263.380848,501.8625 261.855454,502.128662 C260.032248,502.881169 258.019525,503.323903 256.358524,503.632253 C238.056879,507.015572 219.27788,507.831597 200.752994,506.049756 C197.727142,505.75847 194.703902,505.402955 191.694911,504.97136 L191.336448,504.919008 C189.838451,504.69506 188.291512,504.391563 186.923749,503.750758 C185.011009,506.965799 181.327786,506.56146 178.226887,505.649209 C175.792621,505.04744 173.358355,504.454915 170.924088,503.86239 C167.155606,502.848935 161.622578,502.639418 160.693045,497.965344 C160.222816,495.607331 160.25369,492.983393 160.277439,490.587222 L160.272293,489.870112 C160.265799,487.84522 160.401936,485.050141 162.716455,484.619309 C159.537422,478.737905 160.230178,471.505781 163.191433,465.675098 L163.348443,465.388917 C165.527346,461.398466 166.888304,458.066712 166.164801,453.352946 C164.713978,451.987768 164.036896,450.027696 163.50017,448.100804 C161.991399,442.666401 160.730806,437.155918 159.759712,431.600166 C157.519237,435.815863 154.815657,439.777012 151.777693,443.459911 C150.570297,445.179655 149.580204,445.735207 147.624003,446.403812 C147.320017,446.531798 147.011281,446.534168 146.721544,446.451214 C144.910212,448.903083 142.71201,450.84538 141.76039,453.772454 C140.722561,457.010011 140.325954,460.570139 140.121476,463.954642 C140.012706,468.363976 141.852061,472.527531 143.007209,476.715262 C144.817354,482.494514 146.837201,488.210485 149.079576,493.838525 C150.54631,494.183375 152.766836,494.012016 153.301187,495.766839 C153.64531,495.973985 153.927684,496.307933 154.07659,496.792381 L154.202477,497.20481 C155.274259,500.75537 156.183516,504.85633 154.791671,508.412983 C150.945055,517.030667 138.582307,519.179163 130.125785,520.211105 C117.602969,521.398525 104.466718,518.410066 94.0416455,511.282937 C92.5692112,510.251943 91.564631,509.078744 91.320017,507.251634 L91.2818274,506.908669 C90.9561755,503.877079 90.9061714,500.311558 93.0038168,497.972454 C94.8196607,482.471524 97.7944529,466.97652 102.078287,451.961697 C102.045038,451.537449 102.018914,451.113201 101.99754,450.686583 C99.6062595,448.199637 98.6703138,444.698762 98.4019508,441.336538 C98.4416115,439.368881 100.953774,439.542846 102.360899,439.208188 C105.916828,404.149191 107.959712,367.995444 122.314758,335.289008 C119.452989,328.683903 115.584788,322.386539 113.017678,315.615528 L112.836556,315.131068 C111.772604,312.350704 111.126633,309.516301 110.283783,306.679291 C109.73542,305.320275 109.282528,303.943958 109.06285,302.486583 C105.686938,287.056046 103.777998,271.35982 101.786175,255.707914 C100.445072,254.60084 99.5592366,253.004815 98.7821713,251.536538 L98.7754149,251.909547 C98.7172999,254.289883 98.3283172,256.958024 95.3454623,256.888224 C92.887447,256.828972 91.81162,254.996884 91.2606446,252.970448 C90.1900424,257.207714 85.4328923,257.43951 84.038592,253.266711 C83.4163698,251.584177 83.4424936,249.664159 83.2572519,247.898434 C82.2633588,238.207805 80.1891264,228.523812 80.7849873,218.765161 C80.1580153,218.551852 79.6117897,218.073092 79.3458015,217.274368 C67.4710941,181.336064 56.9030534,142.875262 64.6117218,104.952472 C72.3199152,67.7975953 93.1945208,26.2044686 132.643172,15.6688988 C140.629703,13.6526545 148.742578,12.9684066 156.928838,12.4479325 C158.11011,10.1645779 158.873876,7.56718505 159.028244,4.98211668 C159.075742,4.2355351 159.040119,3.49630082 159.037744,2.74948222 C159.035369,2.05978304 159.329856,1.23735825 159.192112,0.592927985 C159.158863,0.436264357 159.372604,0.384122151 159.429601,0.528698268 C159.602969,0.98138742 159.956828,1.20891705 160.196692,1.59050319 C160.793503,2.66913582 160.951196,3.949701 161.108651,5.155134 C161.707362,9.91476937 160.323036,14.8135296 157.406192,18.6101933 L157.244153,18.8249983 C156.327024,20.0286111 154.740235,21.8688055 153.102884,20.9044503 C151.549703,19.9874585 152.608906,18.0958815 153.530365,17.1407311 C154.753435,15.8703573 155.779627,14.5122899 156.612977,13.0309772 C152.90933,14.0171759 149.234182,15.1031559 145.541221,16.1310684 L145.277016,16.275495 C142.386891,17.8354511 138.180696,19.5250164 138.556421,23.3861823 C146.246565,46.5721623 180.267871,52.5301203 201.294232,46.9945141 C205.427922,45.8930811 209.605309,44.1038364 212.418688,40.7669251 L212.531993,40.6307949 C217.392451,34.8816427 217.01983,25.3832288 210.933927,20.6627001 C207.319338,17.7048149 202.324936,16.1334385 197.81525,15.1097922 C199.126667,17.2855442 202.027837,18.8220802 202.555301,21.3998013 C202.69067,22.2838487 202.201442,23.1252343 201.22536,23.1441951 C198.745971,23.1915971 196.917303,20.5465652 195.616098,18.76899 C192.899932,15.0503026 191.359338,10.5546964 191.029941,5.9751887 C190.866073,3.74729444 191.27693,1.73981951 191.83503,-0.386160438 Z M151.639949,501.231342 C151.703596,502.635389 151.01464,504.209847 149.341052,504.146565 C148.123681,505.722445 146.298575,506.757942 144.605513,507.773056 C133.418338,513.895025 119.348516,514.16332 107.502545,509.76868 C104.3038,508.557322 101.218575,507.047568 98.3710772,505.144377 L98.1048532,504.967138 C96.6703836,504.020573 95.0198503,503.045751 94.0012723,501.674551 L94.0360922,502.798342 C94.0882555,504.390662 94.1778011,505.859748 94.6854792,507.346201 C94.9963528,507.988498 95.6138253,508.341643 96.1956743,508.713511 C97.4947413,509.540913 98.8341815,510.306456 100.204495,511.01322 C114.48497,518.243685 132.838863,519.363557 147.184648,511.759327 C151.302477,509.448716 153.045174,505.795918 151.639949,501.231342 Z M164.965479,485.887313 C164.95598,486.0627 164.780237,486.207276 164.599746,486.155134 C163.167684,485.740366 164.027396,488.863922 164.115267,489.36899 C164.402629,491.01858 164.585734,492.67765 164.768601,494.34383 L164.772181,494.660758 C164.818674,497.97355 165.148432,497.996961 168.468448,498.636082 C171.229658,499.346059 173.96835,500.15716 176.717885,500.917907 L177.81664,501.219235 C178.98965,501.554224 184.37016,503.431366 184.317124,501.17678 L184.31374,501.105727 C184.208457,499.629124 186.126153,499.021261 187.114202,499.898298 L187.151739,499.932764 C189.055781,501.741578 191.772737,501.892761 194.257132,502.206452 L194.381154,502.222281 C197.558524,502.632071 200.750382,502.963885 203.944614,503.220093 C220.749654,504.559878 237.725128,503.785255 254.327844,500.865456 L255.40764,500.673255 C256.856224,500.411032 258.937144,499.99222 260.608159,499.190448 C261.247243,499.136647 264.489924,497.565271 264.370466,496.886237 C264.427464,496.785271 264.477574,496.684067 264.520797,496.580731 C265.154894,495.892454 265.134707,494.443375 264.302545,493.897541 C262.915844,494.259929 261.530331,494.614022 260.13888,494.957449 L260.137218,494.961953 L260.137218,494.961953 C258.731281,496.043666 256.810704,496.041533 255.11408,496.417905 C253.280662,496.744505 251.444869,497.052855 249.606938,497.344614 C239.076421,498.998233 228.455895,500.167878 217.804495,500.664888 C198.962324,502.304997 180.525547,496.30817 164.965479,485.887313 Z M103.669466,192.909737 C104.799915,195.685125 103.990076,199.273457 103.158863,202.138908 C104.439169,202.851834 105.318355,204.070066 106.412468,205.014077 C110.208024,208.076483 114.071739,211.061387 117.873707,214.119765 L118.036486,214.248215 C119.155368,215.125062 120.393856,215.992629 120.839949,217.411597 C121.885615,222.078088 115.721103,223.349883 112.249958,223.017121 C111.606599,222.99105 109.763444,222.569172 109.321713,223.012381 C109.0676,223.268352 109.172332,224.41548 109.150721,224.756775 C108.909221,228.461926 108.713694,232.170823 108.451886,235.874976 L108.350382,237.263794 C108.139016,240.072363 108.134266,243.243557 107.022816,245.90992 C106.782952,247.517085 106.113232,249.140366 105.949364,250.730704 C105.799746,252.150157 105.464885,253.70992 104.514928,254.769355 L105.392556,261.676976 C107.045522,274.630097 108.792381,287.58062 111.51374,300.358233 C112.124088,303.225818 112.964801,305.996702 113.744003,308.819491 C115.988516,316.962445 120.203478,324.33322 123.924936,331.861606 L124.06854,332.155846 C125.321359,334.750687 126.150557,337.239407 125.907973,340.192509 C125.758355,342.005872 122.908482,342.017486 123.0581,340.192509 C123.160221,338.964797 123.034351,337.836866 122.768601,336.758233 C116.856777,360.440038 112.559406,384.489446 110.340543,408.804541 C109.44592,418.820111 108.790212,428.812454 107.599915,438.807641 C110.656641,438.7792 113.731891,439.077832 116.679135,439.594751 C121.743359,438.13074 127.788176,438.600968 132.362935,441.222773 C135.187285,441.519194 137.999223,441.901089 140.795659,442.39698 L141.394656,442.504997 C142.698473,442.746747 144.596014,442.765471 145.617218,443.711378 C146.01715,441.839473 147.383427,440.510558 148.585835,439.108644 C149.683036,437.786128 150.716115,436.41858 151.694572,435.01074 C154.389601,431.171415 156.622714,427.032746 158.512892,422.745708 C158.486768,422.072363 158.769381,421.53672 159.213486,421.159874 C166.879644,403.553347 171.636556,384.859418 175.858643,366.180658 C185.551535,324.222299 193.878388,281.919564 198.87659,239.126693 C198.897964,238.929974 199.185327,238.920494 199.187701,239.126693 C200.205581,270.823703 194.700577,302.218525 188.058948,333.096665 C181.269364,363.608151 176.004461,394.805307 163.554792,423.674788 C164.472926,429.565435 165.564665,435.42693 166.993639,441.218033 C180.935216,437.473748 195.447243,436.03249 209.8581,436.598707 C216.058236,418.900695 220.030483,400.42126 219.707735,381.605508 C218.99883,348.875845 229.421052,317.632472 240.606327,287.2895 C248.328533,263.899692 257.728126,240.430248 258.757405,215.563156 C259.235233,209.802864 260.996455,203.991852 259.82112,198.209282 C257.707464,200.76188 254.682087,202.622645 251.720356,203.992326 C246.749703,206.291324 241.425191,207.703903 236.093554,208.881132 C208.904343,215.832399 180.34553,215.824578 153.08626,209.228352 L151.059813,208.762257 C134.837407,205.017244 118.382333,200.836187 103.669466,192.909737 Z M101.866921,205.540002 C98.3335539,211.966292 90.9530958,215.921752 83.9198473,217.357559 C83.6633588,218.196337 82.8606446,218.74146 81.9843087,218.867076 C83.3360984,229.56002 85.5286005,240.140622 86.6960984,250.858689 L86.7631891,251.25826 C86.8809773,251.937974 87.0485722,252.665693 87.5653096,253.129245 C88.2673282,252.848862 88.2789652,251.686328 88.3658863,251.043794 C88.6406616,247.328662 88.9648346,243.616137 89.2847328,239.904086 C89.4129771,238.280567 92.0823579,237.654861 92.3412214,239.491688 L93.4811705,247.614259 L93.4811705,247.614259 L93.5001091,247.698341 C93.7766151,249.019629 93.8669935,253.580334 95.1612587,253.77838 L95.2053435,253.783393 C96.0056411,253.904476 95.7010524,252.294023 95.699127,251.711331 L95.7729432,247.493147 L95.8647724,242.063862 C95.880605,241.158922 95.8972293,240.25407 95.9154368,239.349482 C95.9581849,237.353858 98.7653096,237.441552 98.9602884,239.349482 L99.0441675,240.156566 C99.4299128,243.80622 99.9556228,247.674149 101.757676,250.88239 C102.094911,250.65249 102.56514,250.595608 103.004495,250.714113 C103.156489,248.321497 103.673265,246.039327 104.628923,243.850303 C104.349177,241.523028 104.60963,239.038881 104.726254,236.794864 L104.738168,236.555371 C104.876703,233.669576 105.049873,230.785592 105.215208,227.90191 L105.31313,226.171725 C105.453011,223.657285 105.236896,220.469263 108.091518,219.409829 C110.877744,218.539054 114.03849,219.977942 116.702884,218.48786 C113.586073,215.713894 110.392553,213.173147 107.210433,210.481661 C106.075233,209.536228 104.887786,208.623502 103.807209,207.611469 C103.12324,206.973912 102.572265,206.160968 101.866921,205.540002 Z M106.222477,103.483484 L105.271749,108.378904 C103.692291,116.538655 102.172095,124.707732 101.218575,132.972272 C100.219695,141.854933 99.9596438,150.78713 100.382612,159.714113 C102.559678,151.07012 107.6543,143.468261 110.032044,134.898926 C112.464173,124.253858 106.994792,114.006729 106.222477,103.483484 Z M355.887956,41.4436682 C355.756624,41.3538414 355.829059,41.0867311 356.006701,41.1594932 C362.74665,43.9502862 365.497964,53.9452361 360.424241,59.449557 C358.740204,61.2245251 356.215691,62.2507785 353.916794,61.3195661 C351.123724,60.8474179 349.478733,58.0559494 349.091973,55.4552375 L349.079135,55.3656372 C349.054548,55.2431727 349.191946,55.1874713 349.269773,55.2645302 L349.283613,55.2805506 C350.351128,56.5954822 352.033978,57.4755005 353.567922,58.1483719 C353.99754,57.9158651 354.468007,57.7312343 354.940373,57.6219727 C355.612468,57.4702862 356.301187,57.9964485 356.237065,58.6816445 C359.4097,58.1016146 360.681357,54.3296393 360.777908,51.4679341 L360.780475,51.3814986 C360.908482,47.4212981 359.115437,43.7592562 355.887956,41.4436682 Z" id="ðŸ–-Ink" fill="#000000"></path>
                </g>
                <g id="Head" stroke-width="1" transform="translate(95.945717, 42.661805)">
                    <g id="head/Medium-Bangs-2">
                        <path d="M96.8643257,34.239227 C96.3368617,32.9107858 95.4040034,31.2410501 93.8448855,31.1744503 C92.6389143,27.4948696 89.6403732,23.7475041 85.4695844,23.8470483 C73.2274809,11.3533017 57.815369,11.9422716 41.7017133,14.5870665 C33.2005428,16.1605761 24.5685157,19.2417065 18.2280237,25.3219617 C10.6340628,32.4801386 7.67708227,44.97033 13.6238168,54.0219799 C8.48430874,56.7705852 8.38456319,63.2931012 10.5825276,67.9998833 C7.94045802,69.8232015 7.77991518,74.2486527 10.7549449,75.6394275 C10.5967769,76.2859909 10.7086344,76.9543592 11.010246,77.5288715 C9.53519932,78.7542133 7.61533503,79.6593546 6.02819338,80.4374585 C5.3266497,80.7813601 4.92196777,81.3430738 4.75382528,81.9761276 C-0.45764207,85.388124 -13.4525869,93.7266108 -13.2977439,100.363129 C-13.3742154,103.825371 -10.8007803,106.103985 -7.67351993,107.01126 C-9.53424936,110.723548 -10.9465988,115.059646 -9.16542833,119.064168 C-8.67311281,120.274104 -4.98438002,123.830007 -4.79866331,123.895658 C-4.4740153,124.173434 0.817913486,121.74878 3.38992366,120.512062 C3.8886514,123.749619 7.35765903,125.4459 10.347888,124.336456 C13.183274,123.483457 14.9262087,121.087996 16.7145038,118.908926 C19.0882103,124.076456 26.0720611,124.135945 30.5857846,121.908051 C34.6394911,120.039227 37.720916,116.613958 39.4374894,112.486428 C48.5528075,116.93961 59.2175064,118.237714 69.1208142,116.458954 C69.7563359,117.581433 71.1632231,118.335362 72.4164546,117.90116 C77.6825445,116.321251 83.5050721,116.232609 87.9689228,112.612755 C97.2735199,105.947796 98.0569975,93.6602479 97.4081764,83.1860638 C96.8327396,72.742691 97.3364546,62.2123355 95.4341645,51.8817794 C96.2596777,48.8402297 97.6328414,46.151351 98.9034097,43.2939581 C100.283698,40.2976773 100.254724,35.8435479 96.8643257,34.239227 Z" id="ðŸŽ¨-Background" fill="#FFFFFF"></path>
                        <path d="M10.3567701,78.5678286 C10.9051332,78.4303628 11.19962,79.1658049 10.7341408,79.4613564 C7.77882273,81.3372908 4.72589652,83.0127147 1.87103647,85.053845 C-0.84430704,86.9941953 -3.35229232,89.2045149 -5.69103599,91.5808852 L-5.95020187,91.8456044 C-8.06456997,94.0163792 -10.4062154,96.7780201 -10.4299644,99.9802625 C-10.4482511,102.469342 -8.52529941,105.186188 -5.84238168,104.859114 C-4.8316268,104.735869 -3.90256828,106.015723 -4.25524003,106.938403 L-4.62631298,107.910887 C-6.11907891,111.846401 -7.6378688,116.305477 -6.45870816,120.445997 L-6.4154436,120.593736 C-6.13021883,121.541776 -5.82955725,122.379606 -4.72689398,122.360645 C-3.70355216,122.342633 -2.6386497,121.998257 -1.68061747,121.669524 C0.307406277,120.987172 2.10900085,119.849287 3.63819508,118.418221 C4.9907947,117.152542 6.71890755,118.438448 6.53680409,120.046943 L6.53034097,120.098385 C6.28121459,121.903453 9.16267345,122.741521 10.472665,122.483417 C13.059162,121.972897 14.9032672,119.386644 16.3721391,117.414957 C17.0781951,116.467628 18.793106,116.094574 19.4134283,117.414957 C20.6426735,120.030363 23.1764478,121.985222 26.140553,122.067227 C27.6801968,122.109652 29.1573808,121.672368 30.4614351,120.86132 C30.9937037,120.530089 31.4697167,120.136254 31.9062856,119.689882 L32.0146158,119.5772 C32.6605869,118.8939 33.1063545,118.530563 33.9313927,118.084273 C34.7443189,117.64462 35.795922,118.189743 35.7909699,119.148923 C35.784285,120.391329 35.4195013,121.217309 34.5609771,122.118421 C33.8506463,122.864766 33.006609,123.519861 32.1193486,124.043417 C30.3362782,125.094793 28.2164478,125.68637 26.140553,125.617874 C22.8684241,125.509798 19.745201,123.88225 17.7206039,121.350983 C15.6534962,123.817546 13.0893232,126.083836 9.75710941,126.022924 C7.26252078,125.977418 4.93773707,124.681448 3.82391179,122.673499 C2.25149449,123.755449 0.525659033,124.601338 -1.32058355,125.153809 L-1.48509548,125.202329 C-4.09841889,125.961303 -7.10585221,126.26302 -8.78796268,123.673918 C-10.3672672,121.243143 -10.4850619,117.87689 -10.1231281,115.098421 C-9.799905,112.616452 -9.03471416,110.259387 -8.15600339,107.934556 C-10.6572417,107.18916 -12.5987176,104.844419 -13.2655878,102.316944 C-14.2744427,98.4949207 -12.3172926,94.7883209 -9.89775064,91.9484667 C-7.26945547,88.8635442 -3.96146565,86.2543008 -0.62877693,83.9704722 C2.69512468,81.6930428 6.41872095,79.5528423 10.3567701,78.5678286 Z M95.8220322,48.6732088 C95.828207,48.5670283 96.0025242,48.5298177 96.0186735,48.6464266 C97.1666972,56.9602644 97.83143,65.2572744 98.381693,73.6282315 C98.660743,77.869052 98.9775539,82.1056062 99.3242884,86.3412124 C99.657011,90.4028532 100.210836,94.5725706 100.085679,98.6508022 C99.8897506,105.0368 96.7824394,110.229216 91.6873418,113.965916 C86.8052723,117.546901 80.7488176,119.317366 74.8065954,120.065369 C71.355637,120.499809 67.8567057,120.520665 64.4019474,120.112534 C62.6076408,119.900558 60.8156302,119.618382 59.0582037,119.194725 L58.2983404,119.005013 C56.9143464,118.65227 55.3690166,118.173491 55.1716845,116.537475 C55.0759763,115.74515 55.4977574,115.160684 56.178877,114.762981 C57.0668499,114.244403 58.0849669,114.549672 59.0000136,114.785971 C60.5420322,115.184148 62.1004377,115.525916 63.6764173,115.762215 C67.0613537,116.270365 70.5410483,116.300465 73.9433215,115.948742 C79.666341,115.356691 85.7033215,113.504221 90.1158745,109.678405 C92.0336014,108.016016 93.7010144,105.990292 94.5780628,103.583692 C95.7056624,100.489763 95.5387074,97.1145032 95.5009466,93.8745761 C95.413313,86.3412124 95.490497,78.8078487 95.3855267,71.2737739 C95.2800814,63.7167092 95.3719898,56.219134 95.8220322,48.6732088 Z M38.2703003,13.466649 C44.9575267,11.7454822 51.7442612,11.2982443 58.6134046,11.8163482 C65.0914029,12.3045889 72.4709109,13.7510611 77.7616997,17.7273783 C78.0184258,17.9203045 77.8647701,18.2855369 77.5470093,18.2350538 C74.0098422,17.672392 70.5619712,16.6489827 67.0400034,15.971845 C63.6524546,15.3205415 60.2038711,14.8315898 56.7545751,14.718299 C45.0886209,14.3345798 32.1076879,16.9727384 22.7007328,24.2311705 C18.2898422,27.6343974 14.9236675,32.2105871 13.5839898,37.6554184 C12.2101137,43.2400857 12.9534555,49.2795752 15.7123698,54.3314439 C16.1096896,55.0588277 15.9458219,56.2095114 15.1169839,56.5967858 C12.6019712,57.7718815 10.8105886,60.3751996 10.8495369,63.1844795 C10.8682986,64.5470501 11.3390025,65.8536864 12.0954063,66.9799581 C12.8952706,68.1709335 14.1128787,69.0042607 15.0075013,70.1165488 C15.359698,70.5545433 15.3732349,71.1577338 15.0941849,71.5611249 C15.617374,71.7898396 16.1816489,71.9126108 16.6965259,72.1828022 C17.1330314,72.4119909 17.1453808,73.1275242 16.6965259,73.3531577 C15.5613265,73.9236408 14.3339813,73.3180802 13.5678405,72.3982443 C13.4310466,72.2339964 13.3127769,72.0631121 13.2049567,71.8886727 C12.2872977,71.6945615 11.4651094,71.2349991 10.747179,70.6064485 C9.37924003,71.4238961 9.1918609,73.2436591 10.3669584,74.6341969 C10.9670759,75.3440875 11.8197015,75.782258 12.6814055,76.0972527 L12.784838,76.1344704 C13.6234131,76.4316809 14.3914538,76.597588 14.9362545,77.2671413 C15.2955759,76.5196117 15.708095,75.8149809 16.1678745,75.1729207 C17.8395623,72.839083 20.4091976,70.7685634 23.458324,71.0314075 C25.8467549,71.2368952 27.916,72.9433674 28.4054656,75.297825 C28.441564,75.4720273 28.1784258,75.6080711 28.1000543,75.4262844 C26.9541679,72.7596846 23.3284173,72.6617995 21.1686887,74.0513892 C18.6287396,75.6858104 17.2406141,78.7657557 16.6837014,81.6342881 C16.1355759,84.4599216 16.4523868,87.896567 18.5715047,90.0457739 C19.4385785,90.9253181 20.6181883,91.5334859 21.8493333,91.6937046 C22.4511463,91.7723624 22.9819908,91.6949962 23.5575167,91.5793661 L23.9389246,91.4998379 C24.2035064,91.4452441 24.4665852,91.4011158 24.7440916,91.4256463 L25.1575606,91.4811067 L25.1575606,91.4811067 L25.3925311,91.5907707 C25.5962663,91.6821545 25.5778326,91.6571286 25.3373401,91.5154731 C26.0398338,91.4581167 26.402955,91.9762206 26.4414283,92.5443336 C26.4637523,92.5585542 26.4853639,92.5739599 26.5034131,92.5960018 C29.169469,95.8520456 31.1489432,99.5946709 33.9781544,102.74406 L34.8063684,103.666661 C36.9355188,106.030328 39.3662153,108.592899 42.258589,109.819098 L42.6027962,109.961213 C43.4442802,110.3159 44.2892949,110.801469 44.3965768,111.813723 C44.49276,112.720523 43.7764919,113.402875 42.9507413,113.614525 C41.0703003,114.095892 38.9267209,112.428053 37.5495199,111.333778 C34.5880271,108.981453 32.0991383,105.982802 30.0436675,102.827725 L29.8404816,102.513501 C28.1508015,99.8800363 26.562758,96.8765214 26.0692824,93.7509517 L25.9802796,93.8949686 C25.9736187,93.9052156 25.9684088,93.912948 25.9650246,93.9175697 C25.8643291,94.0540875 25.7534215,94.1692744 25.6247023,94.2797211 C25.2789177,94.5776427 24.8571366,94.751608 24.4189686,94.869639 C23.5965428,95.0912434 22.6947956,95.1348532 21.8493333,95.0485816 C20.1320475,94.8734312 18.5268567,94.2211796 17.1693673,93.1589006 C13.0361018,89.9239508 12.5480611,83.9043701 14.2197489,79.0207785 C12.8480102,79.3476153 11.2855674,78.4263573 10.2144902,77.6368769 C8.98619508,76.7310246 7.9733028,75.4234403 7.7313011,73.8852452 C7.49096183,72.3589006 8.4660933,70.3376791 9.91240373,69.7487092 C8.41170823,67.9505141 7.53798473,65.3986272 7.44773876,63.3553637 C7.29099576,59.8011613 9.18307379,56.4417812 12.0880441,54.5025652 C9.35620356,48.660031 8.82992706,41.8817812 10.6692824,35.6782808 C14.319257,23.368217 26.5461612,16.4842607 38.2703003,13.466649 Z M27.8633249,106.996376 L27.8974488,106.888257 C28.1884478,105.936236 28.564129,104.042538 29.9893299,104.763504 C31.3508567,105.452018 30.4816455,107.490067 30.0054792,108.482191 C29.4357422,109.669375 28.4518236,110.621207 27.1304326,110.87623 C26.0555556,111.083613 24.8752332,110.817214 24.1233418,109.98839 C23.9041391,109.746877 23.7804071,109.4819 23.6505004,109.189429 C23.5999152,109.075665 23.5771162,108.997688 23.5676166,108.946968 C23.5552672,109.002665 23.5201187,109.085619 23.4303478,109.183267 C22.8304495,109.837415 22.2637998,110.598928 21.8284818,111.372766 C21.7254114,111.555737 21.4005259,111.427515 21.4826972,111.227242 C21.9897371,109.989575 21.9044784,108.075719 23.0346904,107.180532 C24.030882,106.391385 24.9669426,107.012462 25.4938427,107.931462 L25.5207294,107.979256 C26.2909075,109.374771 27.5182528,108.049411 27.8633249,106.996376 Z M17.0268974,102.524447 L17.13095,102.380272 C18.1961202,100.927445 19.9924964,99.1797688 21.7899847,100.530955 C22.3616217,100.960655 22.3827583,101.677847 21.7899847,102.104228 L21.5657032,102.264053 C20.7804294,102.819591 19.9985299,103.344306 19.4217405,104.141092 C18.7950059,105.007364 18.2321561,105.924593 17.3895437,106.6041 C15.8992977,107.805741 13.4909177,108.042751 12.197788,106.422788 L12.0705889,106.262021 C11.9624098,106.123034 11.8382765,105.955617 11.7375335,105.788549 L11.6590309,105.897029 C11.6513685,105.907905 11.6441698,105.918292 11.6375448,105.928093 L11.6195013,105.955641 C11.088,106.803189 10.4166175,107.501183 9.5804173,108.051995 C7.99113825,109.098394 6.2002307,109.243918 4.40219847,108.690026 C4.22621883,108.635513 4.27347922,108.400162 4.44375912,108.38452 C6.57427651,108.185905 8.65017133,106.67544 9.51677014,104.730299 L9.61463825,104.511992 C9.96530813,103.738243 10.3581951,103.002929 11.2245564,102.699123 C12.0678813,102.403335 12.9532417,102.715714 13.5315284,103.352323 C14.0150568,103.88441 14.1395013,104.942186 15.0117998,104.708968 C15.9669822,104.453471 16.5046582,103.259652 17.0268974,102.524447 Z M10.9246073,89.6018778 C11.3964987,89.2439927 12.1355657,89.627949 12.2654724,90.1465269 C12.8542087,92.4943482 10.4090178,95.2609663 8.05929771,95.3337284 C7.45441221,95.3522151 6.87256319,95.206217 6.33678711,94.9267821 C5.92118066,94.710155 5.42934012,94.1564995 4.97312299,94.0647767 C4.38391179,93.9465087 3.86191009,94.7295898 3.44701612,95.1315588 C2.93237659,95.6304649 2.42319932,96.0935825 1.84657506,96.5187785 C1.61621035,96.6887147 1.2587888,96.4033546 1.35615946,96.1424066 L1.55120757,95.6235707 C2.2572424,93.7768626 3.47330619,91.0810029 5.74900085,91.8473108 C6.86401357,92.2227347 7.7033011,93.4888423 8.87744869,92.4862899 C9.81766921,91.6835369 9.9053028,90.3747675 10.9246073,89.6018778 Z M20.9653503,80.1501076 C23.0868431,77.7198067 28.073883,79.0034531 29.0195657,81.9601531 C29.2285564,82.6131158 29.0105411,83.4618487 28.499464,83.9240182 C27.8261815,84.532897 26.8657744,84.7172908 26.0483359,84.2397156 C25.3448923,83.8289772 25.0561052,83.1568168 24.5390908,82.5801714 C23.7807871,81.7352306 22.7493707,81.2661878 21.6866056,80.9301076 C21.420855,81.0694695 21.1736285,81.2526782 20.9518134,81.4735716 C20.8382935,81.5866253 20.6238405,81.4316208 20.724536,81.2984211 C20.8613299,81.1173455 21.0285225,80.9469353 21.2187515,80.7897976 L21.1273181,80.7630155 L21.1273181,80.7630155 C20.8475556,80.6852762 20.7869958,80.3548842 20.9653503,80.1501076 Z M34.7533435,53.3171626 C35.2287973,53.3178943 35.7826226,53.7634731 35.7218253,54.2837101 L35.7034643,54.4281582 C35.5666402,55.4185876 35.2477533,55.9793876 34.2543783,56.4395533 C33.4115284,56.8294348 32.5261679,57.0448769 31.6023342,57.1302005 C31.2527498,57.1624339 30.8827413,57.16433 30.5077455,57.1365998 L30.4287737,57.5912555 C30.2718313,58.50052 30.1267786,59.4104063 30.0995013,60.3371832 C30.0486785,62.0552689 30.6910874,63.4711668 31.3800441,65.0050957 C32.7026226,67.9516044 32.8512909,70.8928988 31.4113927,73.8351413 C31.2007396,74.2653145 30.6044037,74.6160893 30.1232502,74.5724795 C29.4993656,74.5160711 29.1979915,74.3359435 28.8351077,73.8351413 C28.5302986,73.4146178 28.600015,72.8202121 28.8110856,72.380468 L28.8351077,72.3322607 C29.5606378,70.9293984 29.7893401,69.3445123 29.4188567,67.8025251 C29.0706972,66.3532088 28.2819949,65.0506016 27.9297981,63.6057885 C27.3560237,61.2522789 27.967084,58.9177302 29.1611807,56.8986418 C28.2599084,56.6395898 27.4263206,56.1778943 26.8701204,55.4737375 L26.8724953,55.4727894 L26.8724953,55.4727894 C26.6601798,55.2464448 26.7760746,54.7736098 27.1486955,54.802051 L27.5700972,54.8360134 C28.7755128,54.9365617 29.8851057,55.041137 31.1040814,54.705825 C31.7289319,54.5337241 32.268341,54.2468303 32.8047573,53.8994844 L32.9196879,53.8241477 C33.5908329,53.3790428 33.9629788,53.3162352 34.7533435,53.3171626 Z M37.6382222,35.9223537 C40.6600373,35.7509954 43.2398846,37.7411686 44.4940662,40.3904667 C45.8563834,43.2666906 45.2847703,46.5669162 44.0823732,49.3967688 L43.7407502,50.188801 C43.1428017,51.5610313 42.357755,53.1928942 41.1331162,53.9291905 C39.7575776,54.7563555 38.5684682,53.7971759 38.9741001,52.2724904 C39.2158643,51.364505 39.8701476,50.6641404 40.3995115,49.9147147 C40.8934894,49.2148241 41.3544563,48.4905214 41.7586633,47.7349335 C42.5504529,46.2531468 43.141564,44.6021349 43.1351518,42.9044321 C43.1239898,39.805763 41.0725564,36.2546418 37.6382222,36.3001477 C37.3928957,36.3029918 37.396933,35.9358633 37.6382222,35.9223537 Z M52.9213537,30.922485 C52.7330246,30.7798049 52.9014046,30.4624485 53.1120577,30.5963592 C56.6162137,32.8204613 59.2326344,36.998237 59.7593859,41.1025397 C60.0517354,43.379732 59.8284953,45.813351 58.8566887,47.9149189 C58.2993011,49.1208259 57.3426938,50.2719836 56.0051535,50.6026126 C54.7754334,50.9062224 53.5079525,50.2053838 53.126307,49.0075351 C52.9783511,48.5427584 53.2329398,48.0566509 53.6174351,47.8028131 C54.8642545,46.9801513 55.8681221,45.9420474 56.4554334,44.5455843 C57.0664936,43.0936609 57.3101578,41.5528587 57.3175199,39.9866964 C57.3355691,36.3189663 55.8688346,33.1579635 52.9213537,30.922485 Z M95.7265377,32.5121349 C95.5643325,32.3327183 95.7683359,32.0682151 95.9830263,32.1805579 C98.5163257,33.5101841 100.126029,36.0570939 100.587233,38.8464649 C101.039176,41.5772944 100.431203,45.2950337 98.3130348,47.2700383 C97.1177506,48.3849335 94.9765462,46.9021987 95.9702019,45.466155 C96.6707956,44.4534111 97.4281493,43.6193728 97.8292689,42.4227092 C98.1869279,41.354979 98.3135098,40.2782425 98.2940356,39.156237 C98.251525,36.7083974 97.3751891,34.3371121 95.7265377,32.5121349 Z M64.7537642,29.0925068 C69.0820085,28.8867821 71.7050789,33.8177758 72.3059271,37.4930902 C72.6768855,39.7638833 72.3980729,42.1026983 71.141754,44.0722516 L71.0674296,44.1869118 C70.0308388,45.7602963 68.1461702,47.5717837 66.1155284,46.8267821 C65.2560543,46.5117958 65.027352,45.5929079 65.6046887,44.8958614 C66.4881493,43.8288423 67.8537133,43.3939289 68.6844512,42.2546217 C69.6163596,40.9769006 69.921771,39.3761349 69.8678609,37.8222972 L69.8605378,37.6506589 C69.7161358,34.7924678 68.3500567,29.3066122 64.7537642,29.403701 C64.5521357,29.4089152 64.5545106,29.1017502 64.7537642,29.0925068 Z M78.2922748,28.2732106 C82.4787379,27.739227 85.0281866,32.6543409 85.814514,36.0402662 C86.3056421,38.1570027 86.4129873,40.5183336 85.7848278,42.6191905 L85.7380064,42.7688468 C85.2266777,44.3367735 83.7180976,47.0232535 81.7486955,46.2219799 C81.2091196,46.0025087 80.6583817,45.4045324 80.9167701,44.7598651 C81.2466429,43.9357812 81.7228092,43.7219982 82.3573808,43.1946509 C82.846134,42.7886527 83.1874063,42.205845 83.4386701,41.6318067 C84.1079152,40.101907 84.2570585,38.3146144 84.1656251,36.6659727 L84.1530295,36.4708453 C83.9165066,33.2506459 82.1669238,28.4515843 78.2922748,28.5398469 C78.1153452,28.543876 78.1274572,28.2940675 78.2922748,28.2732106 Z M85.9567701,23.6524157 C88.2867786,22.7669462 90.1957184,24.9903373 91.5351586,26.5771194 C93.2130212,28.5653965 94.7350908,30.7072562 95.5955148,33.1823519 C96.3618931,35.3877302 96.4967871,37.8398359 95.8064054,40.0847949 C95.4646582,41.1963719 94.932207,42.2271285 94.2054894,43.1344029 L94.1127089,43.2488379 C93.3563668,44.1692079 92.6261989,44.734755 91.3872027,44.4052507 C90.8830127,44.270866 90.6699847,43.773382 90.7571433,43.2979398 C90.94381,42.2821149 91.4684241,42.0183227 92.1478813,41.3091887 C92.747067,40.6837192 93.1916472,39.9134366 93.4906463,39.1035734 C94.1071688,37.4328897 94.1392299,35.6228441 93.7252858,33.9016773 C93.2622369,31.9748648 92.3506864,30.1955531 91.2961154,28.5282032 L91.0686217,28.1710713 C89.9513257,26.4083054 88.3581565,23.6936799 86.0011807,23.9797265 C85.7993147,24.0043756 85.7967023,23.7130902 85.9567701,23.6524157 Z" id="ðŸ–-Ink" fill="#000000"></path>
                    </g>
                    <g id="face/Smile-Teeth-Gap" transform="translate(37.760814, 44.083865)" fill="#000000">
                        <path d="M40.5665861,34.2164632 C42.3599585,35.3043501 45.0925072,37.84109 43.1632513,40.538094 C40.8923326,42.9161315 37.6227224,40.1895491 36.0115152,38.956422 C34.5175283,38.0007416 32.8389503,40.45868 34.2250722,41.574598 C45.8676895,50.1769329 50.5925102,34.5009305 41.4736488,32.937375 C40.4696294,32.7650779 40.0967341,33.8799135 40.5665861,34.2164632 Z M24.3635386,13.4693984 L24.8093943,13.391518 L25.0379183,13.3528605 C26.3735753,13.1324728 27.9568957,12.9850645 28.8793995,14.0313491 C29.3968889,14.618186 29.5750059,15.7089061 28.8793995,16.2706199 C27.6558541,17.2589517 26.3031145,16.8759435 24.836855,16.959608 C23.6285089,17.0288149 22.4671858,17.2283774 21.3032502,17.5604284 C18.7497642,18.2887603 16.6691196,19.6183865 14.4882545,21.0783683 C14.2020797,21.2698724 13.9099678,20.9046399 14.0465242,20.6375296 C15.3054555,18.1766545 17.7451841,16.155196 20.18895,14.9229809 C21.4932417,14.265278 22.920553,13.7196809 24.3635386,13.4693984 Z M36.1755963,47.4662115 C40.0780221,47.7489644 48.5350195,45.8898578 52.0465377,48.6785178 C65.2811094,65.1713345 12.8125768,69.4116809 18.4790738,51.16499 C22.0882002,45.2650994 30.3896421,47.6363847 36.1755963,47.4662115 Z M35.5065886,57.4227657 C34.5414317,57.3443154 33.370134,58.1072507 33.0868092,58.6966946 C32.8034843,59.2863756 32.9129669,60.5323373 32.9215165,60.7482534 C34.6088787,60.9179526 36.3109652,60.9437867 38.0030772,60.833103 C37.5634843,59.3818906 37.5492349,57.642474 35.5065886,57.4227657 Z M43.2976658,59.8573327 C43.0264529,58.0560565 41.7354606,57.6294385 40.6905072,57.8998669 C39.6215674,58.1762206 38.9941204,59.4041696 39.0620424,60.4974968 C39.0665547,60.572866 39.0228567,60.6368587 38.9941204,60.6975333 C40.4470806,60.526175 41.8865038,60.2441331 43.2976658,59.8573327 Z M31.3296251,57.7488915 C30.7211773,56.8250264 29.2672672,56.3792106 28.3360712,56.5420365 C26.8154266,56.861526 26.6354097,58.7898396 26.6354097,59.1828022 C28.0373096,59.7160747 29.5256556,60.0701677 30.9486921,60.3522097 C31.2343919,60.408618 31.5208041,60.4591012 31.8076913,60.5067402 L31.8263693,60.2726198 C31.8609934,59.7708715 31.8866802,58.5945433 31.3296251,57.7488915 Z M48.5307447,57.5964941 C46.9716268,55.1891832 43.6201764,56.9127201 43.8970891,59.5425834 C44.1949008,59.4489644 44.4912875,59.3510793 44.7862494,59.248454 C46.0112197,58.8223099 47.3549347,58.3158195 48.5307447,57.5964941 Z M36.2561052,49.3020912 C34.1585988,49.1136682 32.4379881,49.1771869 31.0700492,49.4303136 L31.0285548,49.8863461 C30.8771886,51.4674518 30.681954,53.0219802 31.5139169,53.6580985 C32.1895742,54.1747803 34.4321866,54.1254822 35.9359695,53.7514804 C36.3074029,53.6580985 36.7902188,50.3788277 36.2561052,49.3020912 Z M39.4994979,49.1136682 C39.1633011,50.6719214 39.0051652,52.5639865 39.6801979,53.125952 C40.3929286,53.7193013 42.68742,53.6388953 43.2874656,53.24363 C43.8126018,52.8977095 43.7992193,51.3064483 43.6042646,49.5199034 C42.442229,49.2466308 40.4188193,49.1136682 39.4994979,49.1136682 Z M30.1424156,49.4459562 L29.4555963,49.4521185 L29.066841,49.4573006 C28.083814,49.474737 27.0232718,49.531238 26.0207871,49.7495661 C24.0291321,54.0448846 31.3023899,54.7863444 30.1790447,49.6047885 L30.1424156,49.4459562 Z M44.5295233,49.5495296 L44.5168443,49.7928569 C44.4571448,50.9994318 44.4967141,52.5882728 45.1664992,53.0172333 C46.1520653,53.6484341 48.0027812,53.5266532 49.0053324,50.607035 C48.6735597,49.7360231 45.1548329,49.6132853 44.5295233,49.5495296 Z M25.2270263,23.9380602 C25.6481418,23.9380602 26.0509118,24.0807086 26.4177179,24.3446632 C26.7787314,24.6044494 27.1055508,24.9836022 27.3777551,25.4564942 C27.892866,26.3513801 28.2148804,27.5869798 28.2148804,28.9531923 C28.2148804,30.3194048 27.892866,31.5550046 27.3777551,32.4498905 C27.1055508,32.9227824 26.7787314,33.3019352 26.4177179,33.5617215 C26.0509118,33.8256761 25.6481418,33.9683245 25.2270263,33.9683245 C24.8059107,33.9683245 24.4031408,33.8256761 24.0363347,33.5617215 C23.6753212,33.3019352 23.3485018,32.9227824 23.0762975,32.4498905 C22.5611866,31.5550046 22.2391722,30.3194048 22.2391722,28.9531923 C22.2391722,27.5869798 22.5611866,26.3513801 23.0762975,25.4564942 C23.3485018,24.9836022 23.6753212,24.6044494 24.0363347,24.3446632 C24.4031408,24.0807086 24.8059107,23.9380602 25.2270263,23.9380602 Z M51.8828838,23.9380602 C52.3039993,23.9380602 52.7067693,24.0807086 53.0735754,24.3446632 C53.4345889,24.6044494 53.7614083,24.9836022 54.0336126,25.4564942 C54.5487235,26.3513801 54.8707379,27.5869798 54.8707379,28.9531923 C54.8707379,30.3194048 54.5487235,31.5550046 54.0336126,32.4498905 C53.7614083,32.9227824 53.4345889,33.3019352 53.0735754,33.5617215 C52.7067693,33.8256761 52.3039993,33.9683245 51.8828838,33.9683245 C51.4617683,33.9683245 51.0589983,33.8256761 50.6921922,33.5617215 C50.3311787,33.3019352 50.0043593,32.9227824 49.732155,32.4498905 C49.2170441,31.5550046 48.8950297,30.3194048 48.8950297,28.9531923 C48.8950297,27.5869798 49.2170441,26.3513801 49.732155,25.4564942 C50.0043593,24.9836022 50.3311787,24.6044494 50.6921922,24.3446632 C51.0589983,24.0807086 51.4617683,23.9380602 51.8828838,23.9380602 Z M48.2561538,12.3670381 L48.5974094,12.4367382 L48.8238069,12.4846464 C52.5047827,13.2748111 57.1715515,14.8324864 58.8946297,18.3992889 C58.9616407,18.9140465 58.8908372,19.0243694 58.8332614,19.0964481 L58.8140916,19.1204334 C58.7666489,19.1819844 58.7287934,19.266832 58.5052239,19.3368914 C58.4431833,19.3221394 58.3805253,19.3065151 58.3172035,19.2899543 C57.5110894,19.0791278 56.8732973,18.7886846 56.2558469,18.4873151 L55.586374,18.1581557 C54.8096518,17.7780821 54.0260716,17.4118413 53.1956566,17.1414685 C51.4234796,16.5645992 49.6006432,16.1582307 47.7495654,15.9412392 C47.3483586,15.8942481 46.9620215,15.7591142 46.6572294,15.5275167 C46.3679205,15.3076842 46.1469071,15.003321 46.0461374,14.598756 C45.9155399,14.0751843 45.9530707,13.6787976 46.2345577,13.2064592 C46.4462185,12.8517432 46.7490713,12.6058787 47.0968229,12.4646949 C47.4513406,12.3207642 47.8549555,12.2868326 48.2561538,12.3670381 Z" id="ðŸ–-Ink"></path>
                    </g>
                    <g id="facial-hair/*-None" transform="translate(29.211196, 80.109389)"></g>
                    <g id="accessories/*-None" transform="translate(11.162002, 57.119417)"></g>
                </g>
            </g>
        </g>
    </g>
</svg>