<svg width="39" height="39" viewBox="0 0 39 39" fill="none" xmlns="http://www.w3.org/2000/svg">
<path d="M4.76559 32.2819C-1.09307 25.9501 -0.923745 16.1289 5.31706 9.99722C7.34959 8.00024 10.4372 6.39222 13.9748 5.10958C17.5036 3.83012 21.4359 2.88996 25.1183 2.20546C28.799 1.52129 32.2191 1.09453 34.7196 0.838843C35.9695 0.711037 36.9888 0.626064 37.6949 0.573078C37.8996 0.557724 38.0779 0.545059 38.2279 0.534816C38.2176 0.680048 38.2049 0.851833 38.1896 1.04833C38.1357 1.74192 38.0493 2.74314 37.9192 3.97093C37.659 6.42721 37.2248 9.7868 36.5286 13.4023C35.832 17.0195 34.8755 20.8817 33.5738 24.3474C32.269 27.8214 30.6333 30.8534 28.6014 32.8497C23.6451 37.7194 16.3094 38.8166 10.2565 36.174C11.9455 27.619 16.5435 20.0831 23.0689 14.6671L22.5232 13.8365C14.7183 17.7997 8.42406 24.3836 4.76559 32.2819Z" fill="#F4F4F4" stroke="#F4F4F4"/>
</svg>
