<svg width="94" height="94" viewBox="0 0 96 96" fill="none" xmlns="http://www.w3.org/2000/svg">
<g clip-path="url(#clip0_20_27)">
<path d="M82 44H76V28C76 23.6 72.4 20 68 20H52V14C52 8.48 47.52 4 42 4C36.48 4 32 8.48 32 14V20H16C11.6 20 8.04 23.6 8.04 28V43.2H14C19.96 43.2 24.8 48.04 24.8 54C24.8 59.96 19.96 64.8 14 64.8H8V80C8 84.4 11.6 88 16 88H31.2V82C31.2 76.04 36.04 71.2 42 71.2C47.96 71.2 52.8 76.04 52.8 82V88H68C72.4 88 76 84.4 76 80V64H82C87.52 64 92 59.52 92 54C92 48.48 87.52 44 82 44Z" fill="white"/>
</g>
<defs>
<clipPath id="clip0_20_27">
<rect width="96" height="96" fill="white"/>
</clipPath>
</defs>
</svg>
