<svg width="96" height="96" viewBox="0 0 96 96" fill="none" xmlns="http://www.w3.org/2000/svg">
<path d="M48 4C36.5111 4 26.8756 12.1846 24.4922 23.1484L32.3125 24.8516C33.9291 17.4154 40.2889 12 48 12C57.1048 12 64 18.8952 64 28V32H24C19.6277 32 16 35.6277 16 40V80C16 84.3723 19.6277 88 24 88H72C76.3723 88 80 84.3723 80 80V40C80 35.6277 76.3723 32 72 32V28C72 14.7048 61.2952 4 48 4ZM24 40H72V80H24V40ZM48 52C43.6 52 40 55.6 40 60C40 64.4 43.6 68 48 68C52.4 68 56 64.4 56 60C56 55.6 52.4 52 48 52Z" fill="white"/>
</svg>
