<svg width="96" height="96" viewBox="0 0 96 96" fill="none" xmlns="http://www.w3.org/2000/svg">
<path d="M72 4C58.7048 4 48 14.7048 48 28V32H11.7188C7.33797 32 4 35.7823 4 40V80C4 84.2177 7.33797 88 11.7188 88H56.2812C60.662 88 64 84.2177 64 80V40C64 35.7823 60.6704 32 56.2891 32H56V28C56 18.8952 62.8952 12 72 12C81.1048 12 88 18.8952 88 28V36H96V28C96 14.7048 85.2952 4 72 4ZM12 40H56V80H12V40ZM34.0312 52C29.6312 52 26.0312 55.6 26.0312 60C26.0312 64.4 29.6312 68 34.0312 68C38.4313 68 42.0312 64.4 42.0312 60C42.0312 55.6 38.4313 52 34.0312 52Z" fill="white"/>
</svg>
