<svg width="96" height="96" viewBox="0 0 96 96" fill="none" xmlns="http://www.w3.org/2000/svg">
<g clip-path="url(#clip0_20_52)">
<path d="M36 52C44.8366 52 52 44.8366 52 36C52 27.1634 44.8366 20 36 20C27.1634 20 20 27.1634 20 36C20 44.8366 27.1634 52 36 52Z" fill="white"/>
<path d="M36 60C25.32 60 4 65.36 4 76V84H68V76C68 65.36 46.68 60 36 60ZM67.04 21.44L60.32 28.2C63.68 32.92 63.68 39.04 60.32 43.76L67.04 50.52C75.12 42.44 75.12 30.24 67.04 21.44ZM80.28 8L73.76 14.52C84.84 26.6 84.84 44.76 73.76 57.48L80.28 64C95.88 48.44 95.92 24.2 80.28 8Z" fill="white"/>
</g>
<defs>
<clipPath id="clip0_20_52">
<rect width="96" height="96" fill="white"/>
</clipPath>
</defs>
</svg>
